<svg width="646" height="616" viewBox="0 0 646 616" fill="none" xmlns="http://www.w3.org/2000/svg">
<path d="M472.287 243.26L463.877 238.636L460.512 226.197L468.923 230.821L472.287 243.26Z" fill="#F9601C"/>
<path d="M517.242 151.642L508.832 147.019L521.955 143.46L530.365 148.083L517.242 151.642Z" fill="#F9601C"/>
<path d="M490.925 161.758L482.515 157.134C485.825 158.955 487.879 162.824 487.896 168.326C487.929 179.4 479.698 192.889 469.512 198.453C464.386 201.253 459.741 201.512 456.387 199.668L464.797 204.292C468.151 206.136 472.796 205.877 477.922 203.077C488.108 197.513 496.341 184.024 496.306 172.95C496.289 167.448 494.235 163.577 490.925 161.758Z" fill="#F9601C"/>
<path d="M510.789 120.161L502.379 115.537L510.541 119.939L518.953 124.563L510.789 120.161Z" fill="#2E178F"/>
<path d="M436.762 241.483L428.352 236.858L435.239 220.445L443.649 225.069L436.762 241.483Z" fill="#F9601C"/>
<path d="M499.204 134.032L490.793 129.408L502.383 115.537L510.793 120.161L499.204 134.032Z" fill="#F9601C"/>
<path d="M438.48 214.407L430.07 209.783C431.106 214.071 432.872 217.644 435.246 220.445L443.656 225.069C441.282 222.268 439.514 218.694 438.48 214.407Z" fill="#DD4407"/>
<path d="M490.795 129.408C490.265 129.337 489.726 129.288 489.183 129.253C489.136 129.25 489.091 129.243 489.044 129.24C488.977 129.235 488.904 129.241 488.837 129.238C488.032 129.197 487.215 129.184 486.377 129.218H486.371C486.365 129.218 486.358 129.219 486.352 129.219C485.399 129.259 484.424 129.352 483.432 129.493C483.408 129.496 483.384 129.496 483.359 129.5C483.347 129.502 483.333 129.505 483.32 129.508C482.763 129.589 482.199 129.686 481.631 129.799C481.492 129.827 481.352 129.863 481.212 129.892C480.779 129.984 480.346 130.079 479.907 130.19C479.868 130.2 479.829 130.206 479.789 130.216C479.323 130.336 478.855 130.465 478.383 130.605L486.793 135.229C487.305 135.077 487.813 134.94 488.317 134.814C488.755 134.703 489.188 134.608 489.619 134.516C489.759 134.487 489.899 134.45 490.038 134.422C490.606 134.309 491.17 134.211 491.727 134.13C491.765 134.124 491.802 134.121 491.839 134.117C492.831 133.976 493.806 133.883 494.761 133.843C494.768 133.843 494.778 133.842 494.785 133.842C495.623 133.808 496.441 133.821 497.246 133.862C497.361 133.868 497.478 133.87 497.593 133.877C498.138 133.912 498.677 133.961 499.204 134.032L490.795 129.408Z" fill="#F9601C"/>
<path d="M435.103 173.792C434.815 174.45 434.537 175.11 434.268 175.77C434.109 176.162 433.974 176.557 433.821 176.949C433.617 177.473 433.416 177.996 433.225 178.522C433.124 178.8 433.005 179.079 432.907 179.357C432.747 179.814 432.616 180.272 432.463 180.73C432.263 181.337 432.06 181.943 431.875 182.55C431.805 182.778 431.721 183.006 431.654 183.236C431.532 183.65 431.445 184.062 431.331 184.476C431.113 185.267 430.903 186.055 430.715 186.845C430.654 187.1 430.573 187.355 430.515 187.608C430.33 188.432 430.16 189.254 430.008 190.073L438.418 194.697C438.617 193.624 438.868 192.546 439.125 191.469C439.313 190.68 439.523 189.89 439.741 189.099C439.917 188.458 440.09 187.816 440.285 187.175C440.47 186.568 440.672 185.961 440.873 185.354C441.118 184.618 441.365 183.881 441.635 183.146C441.826 182.622 442.029 182.097 442.231 181.573C442.641 180.518 443.055 179.463 443.513 178.416L435.103 173.792Z" fill="#DD4407"/>
<path d="M460.256 140.509C458.703 141.745 457.185 143.057 455.707 144.439C454.203 145.846 452.739 147.325 451.326 148.866C450.218 150.071 449.141 151.314 448.096 152.59C448.024 152.677 447.954 152.763 447.883 152.85L456.293 157.474C456.363 157.387 456.434 157.301 456.505 157.214C457.549 155.938 458.627 154.695 459.734 153.49C461.149 151.949 462.612 150.471 464.116 149.063C465.593 147.681 467.112 146.367 468.664 145.133L460.256 140.509Z" fill="#F9601C"/>
<path d="M425.318 205.458L416.906 200.834L430.008 190.07L438.419 194.693L425.318 205.458Z" fill="#F9601C"/>
<path d="M425.355 217.959L416.944 213.335L416.906 200.837L425.318 205.461L425.355 217.959Z" fill="#DD4407"/>
<path d="M468.669 145.132L460.258 140.508L463.537 124.439L471.949 129.063L468.669 145.132Z" fill="#F9601C"/>
<path d="M471.943 129.065L463.531 124.441L475.029 118.161L483.439 122.785L471.943 129.065Z" fill="#DD4407"/>
<path d="M443.522 178.414L435.112 173.79L428.148 164.95L436.558 169.574L443.522 178.414Z" fill="#F9601C"/>
<path d="M444.652 156.291L436.242 151.667L447.883 152.85L456.293 157.474L444.652 156.291Z" fill="#F9601C"/>
<path d="M436.558 169.577L428.148 164.953L436.252 151.667L444.662 156.291L436.558 169.577Z" fill="#DD4407"/>
<path d="M530.408 160.581L517.307 171.354C516.301 176.757 514.562 182.244 512.22 187.621L519.183 196.468L511.072 209.75L499.439 208.562C495.683 213.186 491.513 217.371 487.06 220.916L483.788 236.98L472.292 243.26L468.927 230.821C464.466 232.145 460.285 232.521 456.522 232.005L444.926 245.88L436.77 241.483L443.657 225.07C441.282 222.268 439.516 218.696 438.481 214.408L425.358 217.958L425.32 205.46L438.422 194.695C439.428 189.291 441.167 183.797 443.517 178.414L436.553 169.574L444.657 156.288L456.298 157.471C460.045 152.86 464.215 148.675 468.669 145.131L471.948 129.063L483.444 122.783L486.801 135.226C491.261 133.902 495.442 133.526 499.215 134.03L510.803 120.159L518.967 124.561L512.079 140.965C514.446 143.77 516.212 147.352 517.248 151.639L530.371 148.08L530.408 160.581ZM477.924 203.075C488.111 197.511 496.343 184.022 496.309 172.949C496.276 161.876 487.989 157.409 477.804 162.973C467.618 168.537 459.385 182.026 459.42 193.099C459.452 204.173 467.738 208.639 477.924 203.075Z" fill="#FFAC1A"/>
<path d="M452.532 509.486L351.109 565.245L249.023 509.486L350.446 453.727L452.532 509.486Z" fill="#3A1CB1"/>
<path d="M452.535 509.486L452.461 553.847L351.039 609.606L351.112 565.246L452.535 509.486Z" fill="#725AFF"/>
<path d="M351.114 565.246L351.04 609.606L248.953 553.847L249.028 509.486L351.114 565.246Z" fill="#4B25E6"/>
<path d="M452.535 526.419L452.461 538.183L351.039 593.944L351.112 582.18L452.535 526.419Z" fill="#3A1CB1"/>
<path d="M351.114 582.18L351.04 593.944L248.953 538.185L249.028 526.421L351.114 582.18Z" fill="#28147B"/>
<path d="M345.691 535.053L406.237 502.571L406.228 505.872L345.68 538.354L345.691 535.053Z" fill="#D6D3C4"/>
<path d="M289.996 444.015L289.859 489.786C289.834 497.921 295.901 507.859 303.384 511.947L345.691 535.054L345.682 538.355L303.376 515.248C294.221 510.247 286.795 498.079 286.824 488.127L286.961 442.356L289.996 444.015Z" fill="#D6D3C4"/>
<path d="M363.93 479.464C356.446 475.376 350.381 465.439 350.406 457.303L350.543 411.532L289.996 444.014L289.859 489.784C289.835 497.92 295.901 507.858 303.385 511.946L345.69 535.052L406.238 502.571L363.93 479.464Z" fill="white"/>
<path d="M286.961 442.355L347.509 409.873L350.546 411.533L289.999 444.015L286.961 442.355Z" fill="#999999"/>
<path d="M139.004 503.318L470.968 322.116L471.091 353.935C471.109 364.687 463.115 377.789 453.231 383.188L157.051 544.845C147.166 550.244 139.119 545.905 139.1 535.138L139.004 503.318Z" fill="white"/>
<path d="M138.531 328.44C138.499 317.696 146.494 304.594 156.391 299.188L452.559 137.538C462.443 132.139 470.49 136.477 470.523 147.237L470.979 322.113L139.016 503.317L138.531 328.44Z" fill="#28147B"/>
<path d="M154.848 317.818L155.268 475.677L454.593 312.288L454.173 154.441L154.848 317.818Z" fill="white"/>
<path d="M154.844 317.818L454.169 154.441L454.588 312.288L155.263 475.677L154.844 317.818Z" fill="#4B25E6"/>
<path d="M450.708 128.342C447.452 126.552 442.945 126.804 437.973 129.519L141.805 291.168C131.908 296.575 123.913 309.675 123.945 320.421L124.486 527.138L124.528 527.162C124.55 532.49 126.538 536.239 129.746 538.002L144.333 546.022C141.116 544.253 139.123 540.489 139.113 535.137L139.018 503.319L138.99 503.304L138.534 328.443C138.501 317.699 146.497 304.597 156.394 299.191L452.561 137.541C457.533 134.825 462.041 134.573 465.297 136.364L450.708 128.342Z" fill="#D6D3C4"/>
<path d="M61.7693 347.498C84.4082 335.133 103.224 345.134 103.299 369.866C103.326 378.592 101.058 387.986 97.1173 397.049C96.521 398.43 96.3388 399.817 96.5739 400.916L99.4343 413.946L85.4219 418.401C85.1073 418.501 84.7866 418.64 84.4689 418.814C83.7215 419.222 82.9803 419.827 82.3201 420.589C76.3424 427.536 69.435 433.412 62.0699 437.433C61.187 437.915 60.2963 438.372 59.401 438.799C38.5668 448.76 21.7189 439.437 20.6071 417.343C19.3568 392.439 37.7307 361.191 60.86 348.005C61.1621 347.833 61.4642 347.665 61.7693 347.498Z" fill="#725AFF"/>
<path d="M80.9744 339.265C73.4162 335.109 62.9758 335.658 51.5637 341.893C51.2601 342.059 50.958 342.227 50.6528 342.401C27.5251 355.586 9.15113 386.834 10.3999 411.739C10.9574 422.811 15.4652 430.674 22.4473 434.513L32.6448 440.118C25.6627 436.281 21.1549 428.416 20.5975 417.344C19.3471 392.44 37.721 361.191 60.8503 348.006C61.1555 347.832 61.4576 347.663 61.7612 347.498C73.1733 341.263 83.6137 340.714 91.172 344.87L80.9744 339.265Z" fill="#260FB2"/>
<path d="M47.1214 400.644C48.7112 399.777 49.9989 400.47 50.0036 402.198C50.0082 403.926 48.7299 406.023 47.14 406.89C45.5502 407.758 44.2625 407.064 44.2578 405.336C44.2532 403.608 45.5315 401.513 47.1214 400.644Z" fill="white"/>
<path d="M65.4612 390.633C67.0417 389.769 68.3388 390.459 68.3434 392.187C68.3481 393.915 67.0604 396.015 65.4799 396.878C63.8901 397.746 62.6024 397.052 62.5977 395.324C62.5915 393.598 63.8714 391.502 65.4612 390.633Z" fill="white"/>
<path d="M83.7893 380.623C85.3791 379.755 86.6669 380.449 86.6715 382.177C86.6762 383.905 85.3978 386.001 83.808 386.869C82.2275 387.732 80.9305 387.043 80.9258 385.315C80.9211 383.588 82.2073 381.486 83.7893 380.623Z" fill="white"/>
<path d="M586.122 155.611C563.034 143 543.846 153.199 543.77 178.42C543.743 187.319 546.054 196.9 550.075 206.142C550.683 207.552 550.869 208.966 550.629 210.086L547.711 223.374L562.002 227.917C562.323 228.019 562.65 228.16 562.974 228.339C563.737 228.756 564.492 229.371 565.164 230.149C571.261 237.233 578.305 243.226 585.815 247.327C586.715 247.819 587.623 248.284 588.537 248.72C609.783 258.879 626.965 249.37 628.098 226.839C629.372 201.441 610.635 169.576 587.05 156.128C586.74 155.952 586.432 155.78 586.122 155.611Z" fill="#4B25E6"/>
<path d="M566.531 147.213C574.239 142.975 584.886 143.536 596.524 149.892C596.834 150.062 597.142 150.234 597.454 150.411C621.039 163.857 639.778 195.725 638.502 221.122C637.934 232.412 633.336 240.433 626.217 244.347L615.818 250.064C622.938 246.15 627.536 238.129 628.104 226.839C629.378 201.442 610.641 169.574 587.055 156.128C586.744 155.951 586.436 155.779 586.126 155.609C574.488 149.253 563.841 148.692 556.133 152.93L566.531 147.213Z" fill="#260FB2"/>
<path d="M601.034 209.811C599.413 208.926 598.1 209.634 598.094 211.396C598.089 213.158 599.394 215.295 601.013 216.182C602.634 217.067 603.947 216.359 603.953 214.597C603.959 212.834 602.655 210.696 601.034 209.811Z" fill="white"/>
<path d="M582.334 199.598C580.723 198.717 579.401 199.421 579.395 201.183C579.39 202.945 580.703 205.088 582.314 205.968C583.935 206.853 585.248 206.145 585.254 204.383C585.26 202.621 583.955 200.483 582.334 199.598Z" fill="white"/>
<path d="M563.659 189.39C562.038 188.505 560.725 189.213 560.719 190.975C560.714 192.737 562.019 194.874 563.638 195.76C565.25 196.641 566.572 195.937 566.578 194.175C566.584 192.413 565.27 190.271 563.659 189.39Z" fill="white"/>
<path d="M117.949 607.794L108.239 602.455L104.355 588.096L114.064 593.433L117.949 607.794Z" fill="#F9601C"/>
<path d="M169.849 502.026L160.141 496.689L175.29 492.58L184.998 497.917L169.849 502.026Z" fill="#F9601C"/>
<path d="M139.467 513.705L129.758 508.366C133.581 510.468 135.951 514.936 135.969 521.287C136.008 534.07 126.505 549.642 114.744 556.065C108.827 559.297 103.465 559.597 99.5938 557.469L109.302 562.807C113.175 564.936 118.536 564.637 124.453 561.403C136.212 554.981 145.715 539.409 145.678 526.625C145.659 520.275 143.289 515.807 139.467 513.705Z" fill="#F9601C"/>
<path d="M162.405 465.685L152.695 460.347L162.12 465.427L171.829 470.766L162.405 465.685Z" fill="#2E178F"/>
<path d="M76.9406 605.743L67.2305 600.404L75.1826 581.456L84.8912 586.795L76.9406 605.743Z" fill="#F9601C"/>
<path d="M149.037 481.698L139.328 476.359L152.705 460.347L162.415 465.685L149.037 481.698Z" fill="#F9601C"/>
<path d="M78.9273 574.486L69.2188 569.147C70.4146 574.097 72.4529 578.222 75.1934 581.457L84.902 586.795C82.1615 583.562 80.1232 579.436 78.9273 574.486Z" fill="#DD4407"/>
<path d="M139.318 476.359C138.708 476.278 138.085 476.22 137.458 476.179C137.403 476.176 137.352 476.167 137.297 476.164C137.219 476.16 137.135 476.166 137.057 476.163C136.128 476.114 135.184 476.099 134.217 476.139C134.217 476.139 134.213 476.139 134.209 476.139C134.202 476.139 134.195 476.141 134.188 476.141C133.087 476.188 131.961 476.294 130.817 476.457C130.787 476.462 130.76 476.462 130.731 476.465C130.715 476.468 130.701 476.471 130.686 476.472C130.043 476.566 129.392 476.678 128.736 476.809C128.576 476.842 128.414 476.883 128.254 476.917C127.754 477.023 127.254 477.133 126.748 477.26C126.703 477.272 126.658 477.279 126.612 477.291C126.075 477.428 125.533 477.578 124.988 477.74L134.697 483.079C135.289 482.904 135.874 482.746 136.456 482.599C136.962 482.47 137.462 482.361 137.961 482.255C138.121 482.221 138.284 482.179 138.445 482.148C139.102 482.017 139.751 481.905 140.394 481.81C140.438 481.805 140.48 481.8 140.524 481.794C141.668 481.631 142.794 481.525 143.895 481.478C143.904 481.478 143.913 481.476 143.923 481.476C144.89 481.436 145.833 481.451 146.763 481.5C146.895 481.507 147.031 481.508 147.163 481.517C147.792 481.559 148.413 481.615 149.024 481.697L139.318 476.359Z" fill="#F9601C"/>
<path d="M75.0117 527.599C74.68 528.359 74.3592 529.12 74.0478 529.883C73.8641 530.336 73.7084 530.791 73.5309 531.243C73.2957 531.848 73.0637 532.453 72.8411 533.058C72.7227 533.381 72.5888 533.7 72.4751 534.023C72.2898 534.55 72.1388 535.079 71.9628 535.608C71.7308 536.308 71.4973 537.007 71.2839 537.708C71.203 537.972 71.1049 538.236 71.0286 538.501C70.8884 538.978 70.7872 539.454 70.6564 539.933C70.4057 540.846 70.1613 541.757 69.9448 542.667C69.8748 542.96 69.7813 543.255 69.7159 543.548C69.5011 544.498 69.3049 545.447 69.1289 546.394L78.8391 551.732C79.0695 550.495 79.3591 549.25 79.655 548.005C79.8714 547.095 80.1159 546.182 80.3666 545.27C80.5706 544.529 80.7683 543.789 80.9941 543.048C81.2074 542.347 81.441 541.648 81.673 540.948C81.9548 540.098 82.2413 539.246 82.5512 538.398C82.7723 537.792 83.0059 537.187 83.241 536.583C83.7144 535.366 84.1924 534.148 84.7203 532.939L75.0117 527.599Z" fill="#DD4407"/>
<path d="M104.053 489.175C102.261 490.601 100.509 492.117 98.8023 493.712C97.0662 495.337 95.3767 497.044 93.7433 498.822C92.4649 500.213 91.2223 501.647 90.0156 503.121C89.933 503.221 89.8521 503.321 89.7695 503.421L99.4781 508.76C99.5591 508.659 99.6416 508.559 99.7241 508.459C100.931 506.986 102.175 505.551 103.452 504.161C105.085 502.383 106.773 500.675 108.511 499.05C110.216 497.455 111.969 495.939 113.76 494.513L104.053 489.175Z" fill="#F9601C"/>
<path d="M63.7164 564.157L54.0078 558.819L69.132 546.392L78.8406 551.73L63.7164 564.157Z" fill="#F9601C"/>
<path d="M63.76 578.584L54.0499 573.246L54.0078 558.818L63.7164 564.157L63.76 578.584Z" fill="#DD4407"/>
<path d="M113.767 494.511L104.059 489.174L107.844 470.623L117.553 475.962L113.767 494.511Z" fill="#F9601C"/>
<path d="M117.548 475.962L107.84 470.623L121.111 463.374L130.821 468.712L117.548 475.962Z" fill="#DD4407"/>
<path d="M84.7323 532.933L75.0237 527.596L66.9844 517.392L76.6945 522.729L84.7323 532.933Z" fill="#F9601C"/>
<path d="M86.0445 507.393L76.3359 502.055L89.7738 503.419L99.484 508.757L86.0445 507.393Z" fill="#F9601C"/>
<path d="M76.6945 522.73L66.9844 517.392L76.3395 502.055L86.0481 507.393L76.6945 522.73Z" fill="#DD4407"/>
<path d="M185.045 512.346L169.921 524.783C168.759 531.02 166.752 537.354 164.049 543.563L172.088 553.778L162.725 569.11L149.295 567.74C144.959 573.077 140.146 577.909 135.004 582.001L131.227 600.546L117.954 607.795L114.07 593.434C108.921 594.963 104.094 595.396 99.7496 594.801L86.3631 610.817L76.9472 605.741L84.8978 586.793C82.1573 583.559 80.1191 579.433 78.9232 574.484L63.7741 578.583L63.7305 564.156L78.8547 551.729C80.0163 545.492 82.0234 539.147 84.7359 532.935L76.6965 522.731L86.0501 507.393L99.4895 508.759C103.817 503.436 108.63 498.605 113.771 494.512L117.557 475.963L130.83 468.714L134.705 483.08C139.855 481.551 144.68 481.118 149.035 481.698L162.414 465.686L171.838 470.766L163.885 489.704C166.618 492.944 168.656 497.077 169.851 502.027L185 497.918L185.045 512.346ZM124.456 561.403C136.216 554.98 145.719 539.408 145.681 526.624C145.642 513.841 136.077 508.684 124.318 515.108C112.558 521.532 103.055 537.102 103.093 549.886C103.132 562.669 112.697 567.825 124.456 561.403Z" fill="#FFAC1A"/>
<path d="M625.236 412.229L625.2 424.068L612.715 435.617L612.749 423.778L625.236 412.229Z" fill="#381BAB"/>
<path d="M488.405 423.772L488.371 435.612L475.746 424.074L475.782 412.234L488.405 423.772Z" fill="#261374"/>
<path d="M584.155 445.185L584.119 457.024C584.133 452.306 580.842 447.58 574.25 443.98C561.144 436.822 539.963 436.822 526.942 443.98C520.474 447.536 517.235 452.19 517.223 456.852L517.258 445.013C517.272 440.352 520.51 435.697 526.978 432.141C539.999 424.983 561.18 424.983 574.286 432.141C580.879 435.741 584.169 440.467 584.155 445.185Z" fill="#261374"/>
<path d="M645.997 450.817L645.961 462.657L622.199 465.955L622.235 454.116L645.997 450.817Z" fill="#371BAA"/>
<path d="M479.282 454.109L479.246 465.95L455.445 462.652L455.481 450.812L479.282 454.109Z" fill="#311895"/>
<path d="M622.24 454.112L622.204 465.952C620.441 470.25 617.36 474.416 612.977 478.265L613.012 466.426C617.396 462.577 620.477 458.411 622.24 454.112Z" fill="#3A1DB1"/>
<path d="M488.66 466.422L488.624 478.261C484.205 474.416 481.073 470.252 479.25 465.948L479.286 454.108C481.109 458.413 484.241 462.577 488.66 466.422Z" fill="#311895"/>
<path d="M589.832 479.167L589.797 491.006C582.786 493.421 575.196 495.124 567.355 496.103L567.391 484.264C575.23 483.284 582.821 481.581 589.832 479.167Z" fill="#28147B"/>
<path d="M534.499 484.264L534.463 496.103C526.601 495.118 518.999 493.421 511.961 491.006L511.997 479.167C519.035 481.583 526.637 483.28 534.499 484.264Z" fill="#28147B"/>
<path d="M625.636 477.972L625.6 489.811L610.895 497.895L610.93 486.056L625.636 477.972Z" fill="#3A1DB1"/>
<path d="M610.938 486.055L610.902 497.894L589.797 491.011L589.833 479.17L610.938 486.055Z" fill="#2C1687"/>
<path d="M490.971 486.05L490.936 497.889L476.145 489.81L476.179 477.97L490.971 486.05Z" fill="#28147B"/>
<path d="M511.999 479.167L511.963 491.008L490.93 497.887L490.966 486.048L511.999 479.167Z" fill="#3A1CB1"/>
<path d="M567.386 484.266L567.351 496.106L561.41 509.137L561.446 497.298L567.386 484.266Z" fill="#321898"/>
<path d="M561.448 497.297L561.412 509.136H540.562L540.598 497.297H561.448Z" fill="#341AA0"/>
<path d="M540.597 497.298L540.561 509.137L534.465 496.106L534.501 484.266L540.597 497.298Z" fill="#261373"/>
<path d="M610.938 486.054L589.833 479.169C582.823 481.583 575.231 483.286 567.392 484.265L561.452 497.296H540.602L534.506 484.265C526.644 483.28 519.042 481.583 512.004 479.169L490.971 486.048L476.18 477.969L488.666 466.42C484.247 462.576 481.114 458.411 479.291 454.107L455.49 450.809L455.422 439.383L479.183 436.085C480.955 431.791 484.028 427.621 488.411 423.771L475.787 412.234L490.493 404.15L511.588 411.029C518.599 408.615 526.2 406.918 534.03 405.932L539.97 392.901H560.82L566.916 405.932C574.776 406.918 582.389 408.619 589.418 411.029L610.451 404.15L625.242 412.228L612.756 423.777C617.186 427.627 620.308 431.787 622.131 436.091L645.931 439.389L646 450.815L622.238 454.113C620.476 458.413 617.394 462.577 613.011 466.426L625.644 477.969L610.938 486.054ZM527.138 458.064C540.244 465.221 561.416 465.217 574.435 458.058C587.456 450.9 587.396 439.298 574.29 432.139C561.184 424.981 540.003 424.981 526.982 432.139C513.963 439.298 514.033 450.906 527.138 458.064Z" fill="#4B25E6"/>
<path d="M313.04 426.82C318.185 426.136 322.338 429.832 322.329 435.085C322.318 440.323 318.148 445.141 313.003 445.826C307.858 446.509 303.706 442.8 303.715 437.56C303.726 432.307 307.896 427.503 313.04 426.82Z" fill="#ABABB4"/>
<path d="M479.826 55.567L475.602 53.3176L555.827 9.49902L560.051 11.7484L479.826 55.567Z" fill="#F9601C"/>
<path d="M560.058 11.7471L520.054 66.5313L479.832 55.5656L560.058 11.7471Z" fill="#DD4407"/>
<path d="M555.78 9.53679L509.272 0L475.555 53.3554L555.78 9.53679Z" fill="#FFAC1A"/>
<path d="M560.051 11.7471L560.225 66.6286L520.047 66.5313L560.051 11.7471Z" fill="#F9601C"/>
<path d="M520.058 66.5322L560.236 66.6295L480 110.454L520.058 66.5322Z" fill="#FFAC1A"/>
<path d="M479.996 110.454L479.832 55.5664L520.054 66.5321L479.996 110.454Z" fill="#F9601C"/>
<path d="M479.989 110.454L475.767 108.205L475.602 53.3174L479.826 55.5668L479.989 110.454Z" fill="#DD4407"/>
<path d="M633.006 316.063L581.852 288.122C579.006 286.567 576.458 283.288 575.424 279.841L571.639 267.303C570.605 263.864 568.05 260.58 565.211 259.029L544.597 247.77C542.672 246.718 540.927 246.621 539.668 247.313L526.5 254.554C527.76 253.861 529.504 253.959 531.428 255.01L552.043 266.269C554.881 267.82 557.437 271.104 558.471 274.543L562.257 287.081C563.29 290.529 565.837 293.809 568.685 295.363L619.839 323.303C623.665 325.392 626.756 330.458 626.744 334.616L626.604 381.596C626.597 383.661 625.827 385.115 624.582 385.799L637.751 378.558C638.995 377.875 639.766 376.421 639.772 374.356L639.912 327.376C639.923 323.217 636.831 318.151 633.006 316.063Z" fill="#FFAC1A"/>
<path d="M552.031 266.27C554.869 267.821 557.424 271.105 558.458 274.544L562.245 287.082C563.278 290.53 565.825 293.809 568.673 295.364L619.827 323.304C623.653 325.392 626.744 330.458 626.731 334.617L626.591 381.597C626.579 385.755 623.466 387.433 619.642 385.344L531.17 337.021C527.344 334.932 524.253 329.866 524.266 325.708L524.317 308.589L524.429 271.197L524.467 258.756C524.479 254.597 527.59 252.919 531.416 255.01L552.031 266.27Z" fill="#F9601C"/>
<path d="M370.776 35.3859L381.715 41.4005C376.483 38.5236 369.24 38.9287 361.244 43.2964C358.955 44.547 356.727 46.0658 354.587 47.7849L343.648 41.7703C345.788 40.0512 348.016 38.5324 350.305 37.2817C358.299 32.914 365.545 32.5104 370.776 35.3859Z" fill="#260FB2"/>
<path d="M337.354 34.0081L348.293 40.0228C343.585 37.4345 337.069 37.7984 329.878 41.7256C328.609 42.418 327.371 43.2032 326.154 44.062L315.215 38.0473C316.433 37.1871 317.672 36.4034 318.939 35.711C326.129 31.7838 332.647 31.4199 337.354 34.0081Z" fill="#260FB2"/>
<path d="M307.586 27.0837C302.404 24.2347 295.23 24.6354 287.31 28.9604C273.804 36.3376 262.518 52.742 259.625 68.068L270.564 74.0826C273.455 58.7566 284.741 42.3523 298.249 34.975C306.169 30.6485 313.342 30.2493 318.524 33.0983L307.586 27.0837Z" fill="#4333DD"/>
<path d="M233.657 116.872L222.719 110.858C223.379 96.0709 234.305 78.6442 247.732 71.3097C252.024 68.966 256.069 67.9319 259.613 68.0674L270.552 74.082C267.008 73.9465 262.961 74.9806 258.671 77.3243C245.244 84.6588 234.318 102.086 233.657 116.872Z" fill="#260FB2"/>
<path d="M215.872 174.063L204.933 168.049C200.665 165.702 198.057 160.755 198.035 153.302C197.989 137.983 208.882 119.474 222.722 110.857L233.66 116.872C219.819 125.49 208.927 143.998 208.974 159.316C208.997 166.77 211.606 171.717 215.872 174.063Z" fill="#4333DD"/>
<path d="M298.246 34.9765C311.871 27.5344 323.289 31.7107 326.154 44.064C327.372 43.2037 328.611 42.42 329.879 41.7277C341.403 35.4331 351.199 38.2939 354.582 47.7865C356.722 46.0674 358.95 44.5486 361.239 43.298C377.134 34.6156 390.058 41.5951 390.109 58.8745C390.161 76.1538 377.314 95.1788 361.419 103.861L235.725 171.728C220.999 179.771 209.025 175.327 208.977 159.319C208.932 144 219.824 125.491 233.663 116.874C234.323 102.088 245.25 84.6609 258.677 77.3264C262.968 74.9827 267.013 73.9486 270.557 74.0841C273.454 58.7581 284.74 42.3537 298.246 34.9765Z" fill="#725AFF"/>
<path d="M307.416 153.568L300.417 149.72L300.242 114.111L307.241 117.959L307.416 153.568Z" fill="#F9601C"/>
<path d="M317.888 77.5264L349.782 94.7203L328.744 106.212L328.92 141.821L307.412 153.567L307.237 117.958L286.199 129.45L317.888 77.5264Z" fill="#FFAC1A"/>
<path d="M286.198 129.45L279.199 125.601L310.888 73.6777L317.887 77.5269L286.198 129.45Z" fill="#F9601C"/>
<path d="M176.371 234.451L423.588 99.5186L423.933 328.777L176.718 463.723L176.371 234.451Z" fill="white"/>
<path d="M423.939 229.882L423.885 229.907L423.587 121.262L176.433 256.162L176.379 234.452L423.587 99.5137L423.939 229.882Z" fill="#4B25E6"/>
<path d="M190.639 234.849C192.434 233.869 193.887 234.653 193.893 236.603C193.899 238.554 192.454 240.921 190.661 241.902C188.867 242.881 187.412 242.098 187.406 240.147C187.4 238.196 188.845 235.828 190.639 234.849Z" fill="white"/>
<path d="M211.343 223.542C213.128 222.567 214.592 223.346 214.598 225.297C214.604 227.247 213.15 229.62 211.364 230.595C209.568 231.575 208.116 230.791 208.109 228.841C208.105 226.889 209.548 224.522 211.343 223.542Z" fill="white"/>
<path d="M232.023 212.241C233.817 211.262 235.271 212.045 235.278 213.996C235.284 215.946 233.839 218.313 232.043 219.294C230.259 220.27 228.795 219.49 228.789 217.54C228.783 215.588 230.237 213.216 232.023 212.241Z" fill="white"/>
<path d="M408.606 150.006L408.603 147.564L408.6 147.565V147.558L203.209 259.669L191.406 266.111L191.711 348.106L408.907 229.548L408.606 150.006Z" fill="#725AFF"/>
<path d="M499.053 236.778L499.319 325.759L361.405 401.087L361.137 312.108L499.053 236.778Z" fill="#FFAC1A"/>
<path d="M499.04 250.526L361.167 325.845L361.125 312.11L499.04 236.771V250.526Z" fill="#3A1DB2"/>
<path d="M368.816 312.501C369.878 311.921 370.738 312.385 370.742 313.54C370.745 314.694 369.89 316.094 368.828 316.674C367.767 317.255 366.907 316.791 366.902 315.636C366.901 314.482 367.754 313.081 368.816 312.501Z" fill="white"/>
<path d="M381.062 305.809C382.118 305.232 382.984 305.693 382.988 306.848C382.991 308.003 382.132 309.405 381.075 309.983C380.013 310.563 379.153 310.099 379.148 308.944C379.145 307.791 380 306.39 381.062 305.809Z" fill="white"/>
<path d="M393.312 299.122C394.374 298.542 395.234 299.006 395.238 300.161C395.241 301.316 394.387 302.715 393.325 303.295C392.269 303.873 391.403 303.412 391.398 302.257C391.395 301.102 392.255 299.698 393.312 299.122Z" fill="white"/>
<path d="M441.227 305.4L464.647 303.168L464.672 311.492L441.314 334.819L441.292 327.576L458.627 310.625L441.248 312.643L441.227 305.4Z" fill="#3A1DB2"/>
<path d="M443.71 291.479L426.873 353.212L419.008 357.508L435.845 295.775L443.71 291.479Z" fill="#3A1DB2"/>
<path d="M419.151 317.913L419.173 325.156L401.838 342.107L419.218 340.096L419.24 347.332L395.818 349.564L395.793 341.239L419.151 317.913Z" fill="#3A1DB2"/>
<path d="M283.522 309.666L203.209 353.505L191.406 359.947L191.711 441.942L283.522 391.828V309.666Z" fill="#FFAC1A"/>
<path d="M246.297 391.592V404.163L274.591 388.718V376.146L246.297 391.592Z" fill="white"/>
<path d="M205.414 411.674L205.581 416.416L237.184 399.164V394.331L205.414 411.674Z" fill="#4B25E6"/>
<path d="M232.15 406.606L205.414 421.2L205.581 425.941L232.15 411.438V406.606Z" fill="#725AFF"/>
<path d="M274.594 330.145L245.988 345.731L246.156 350.472L274.594 334.978V330.145Z" fill="#4B25E6"/>
<path d="M274.594 339.671L245.988 355.256L246.156 359.998L274.594 344.503V339.671Z" fill="#725AFF"/>
<path d="M274.594 350.29L245.988 365.875L246.156 370.617L274.594 355.122V350.29Z" fill="#4B25E6"/>
<path d="M274.594 359.814L245.988 375.401L246.156 380.142L274.594 364.648V359.814Z" fill="#725AFF"/>
<path d="M219.973 373.075L238.619 362.89C238.637 368.489 236.566 374.699 233.201 380.213C229.836 385.727 225.177 390.542 220.034 393.352C214.883 396.165 210.212 396.445 206.825 394.62C203.438 392.793 201.336 388.862 201.32 383.262C201.303 377.663 203.374 371.453 206.739 365.939C210.104 360.425 214.763 355.61 219.912 352.796L219.973 373.075Z" fill="#4B25E6"/>
<path d="M219.914 352.799C225.057 349.99 229.729 349.71 233.115 351.535C236.502 353.36 238.604 357.294 238.621 362.893L219.975 373.078L219.914 352.799Z" fill="white"/>
<path d="M344.59 278.062L306.782 298.7L294.98 305.141L295.286 387.137L344.59 360.223V278.062Z" fill="#725AFF"/>
<path d="M337.429 296.388L312.313 310.096L304.473 314.376L304.675 318.461L337.429 300.582V296.388Z" fill="white"/>
<path d="M337.429 313.242L312.313 326.952L304.473 331.232L304.675 335.316L337.429 317.436V313.242Z" fill="white"/>
<path d="M337.429 330.095L312.313 343.805L304.473 348.084L304.675 352.169L337.429 334.29V330.095Z" fill="#FFAC1A"/>
<path d="M337.429 346.949L312.313 360.659L304.473 364.939L304.675 369.023L337.429 351.145V346.949Z" fill="#FFAC1A"/>
<path d="M410.192 245.033L372.383 265.671L360.582 272.112L360.887 297.441L410.192 270.528V245.033Z" fill="#FFAC1A"/>
<path d="M401.204 260.185L377.104 273.338L369.582 277.445L369.777 283.599L401.204 266.445V260.185Z" fill="white"/>
<path d="M135.761 150.175C134.827 149.663 133.535 149.735 132.108 150.512L5.13071 219.869C2.29521 221.417 -0.00931436 225.179 2.83067e-05 228.261L0.208685 298.032C0.213357 299.563 0.78793 300.643 1.71285 301.151L10.0605 306.002C9.1356 305.493 8.56103 304.414 8.55636 302.883L8.3477 233.112C8.33836 230.03 10.6429 226.268 13.4784 224.719L140.456 155.365C141.882 154.586 143.176 154.513 144.109 155.028L135.761 150.175Z" fill="#F9601C"/>
<path d="M13.4706 224.718C10.6351 226.266 8.33053 230.029 8.33987 233.11L8.54853 302.882C8.55787 305.964 10.8764 307.214 13.7119 305.666L119.214 248.042C121.599 246.74 123.865 246.588 125.477 247.628L136.931 255.018C137.997 255.705 139.357 255.529 140.693 254.799C143.331 253.358 145.873 249.753 145.862 246.364L145.598 158.142C145.588 155.06 143.281 153.817 140.447 155.365L13.4706 224.718Z" fill="#FFAC1A"/>
<path d="M34.1602 233.858V239.421L118.694 193.245V187.683L34.1602 233.858Z" fill="white"/>
<path d="M34.1602 250.301V255.863L118.694 209.687V204.125L34.1602 250.301Z" fill="white"/>
<path d="M104.794 228.16L49.2109 258.522V264.084L104.794 233.723V228.16Z" fill="white"/>
<path d="M424.654 38.1162L428.288 47.7561L438.196 50.1823L428.272 55.2453L424.599 65.856L420.951 56.219L411.043 53.7928L420.966 48.7284L424.654 38.1162Z" fill="#4B25E6"/>
<path d="M562.271 105.392L564.25 110.642L569.646 111.963L564.243 114.721L562.242 120.498L560.255 115.251L554.859 113.928L560.263 111.172L562.271 105.392Z" fill="#FFAC1A"/>
<path d="M519.006 356.683L522.36 365.58L531.506 367.821L522.346 372.495L518.954 382.289L515.588 373.393L506.441 371.153L515.6 366.479L519.006 356.683Z" fill="#4B25E6"/>
<path d="M203.346 585.431L207.351 596.053L218.269 598.727L207.335 604.307L203.287 616L199.266 605.379L188.348 602.706L199.282 597.126L203.346 585.431Z" fill="#FFAC1A"/>
<path d="M166.447 83.2051L169.803 92.1025L178.949 94.3431L169.789 99.0172L166.397 108.812L163.029 99.9158L153.883 97.6767L163.043 93.0011L166.447 83.2051Z" fill="#FFAC1A"/>
<path d="M70.5854 76.335L73.8849 85.0866L82.8819 87.2903L73.8724 91.8879L70.5355 101.522L67.2236 92.7717L58.2266 90.568L67.2376 85.9705L70.5854 76.335Z" fill="#4B25E6"/>
<path d="M81.2177 292.1L84.3709 300.467L92.9723 302.573L84.3584 306.969L81.1694 316.179L78.0038 307.813L69.4023 305.707L78.0163 301.312L81.2177 292.1Z" fill="#4B25E6"/>
</svg>
