<svg width="921" height="695" viewBox="0 0 921 695" fill="none" xmlns="http://www.w3.org/2000/svg">
<rect x="401" y="0.46875" width="113" height="70" rx="35" fill="#0D7742"/>
<path d="M444.404 31.7021C443.883 31.7021 443.42 31.8047 443.016 32.0098C442.617 32.209 442.28 32.499 442.005 32.8799C441.735 33.2607 441.53 33.7207 441.39 34.2598C441.249 34.7988 441.179 35.4053 441.179 36.0791C441.179 36.9873 441.29 37.7637 441.513 38.4082C441.741 39.0469 442.093 39.5361 442.567 39.876C443.042 40.21 443.654 40.377 444.404 40.377C444.926 40.377 445.447 40.3184 445.969 40.2012C446.496 40.084 447.067 39.917 447.683 39.7002V41.9854C447.114 42.2197 446.555 42.3867 446.004 42.4863C445.453 42.5918 444.835 42.6445 444.149 42.6445C442.825 42.6445 441.735 42.3721 440.88 41.8271C440.03 41.2764 439.4 40.5088 438.99 39.5244C438.58 38.5342 438.375 37.3799 438.375 36.0615C438.375 35.0889 438.507 34.1982 438.771 33.3896C439.034 32.5811 439.421 31.8809 439.931 31.2891C440.44 30.6973 441.07 30.2402 441.82 29.918C442.57 29.5957 443.432 29.4346 444.404 29.4346C445.043 29.4346 445.682 29.5166 446.32 29.6807C446.965 29.8389 447.58 30.0586 448.166 30.3398L447.287 32.5547C446.807 32.3262 446.323 32.127 445.837 31.957C445.351 31.7871 444.873 31.7021 444.404 31.7021ZM454.169 29.6191C455.335 29.6191 456.296 29.7598 457.052 30.041C457.813 30.3223 458.379 30.7471 458.748 31.3154C459.117 31.8838 459.302 32.6016 459.302 33.4688C459.302 34.0547 459.19 34.5674 458.968 35.0068C458.745 35.4463 458.452 35.8184 458.089 36.123C457.726 36.4277 457.333 36.6768 456.911 36.8701L460.69 42.4688H457.667L454.6 37.5381H453.149V42.4688H450.425V29.6191H454.169ZM453.976 31.8516H453.149V35.3232H454.028C454.931 35.3232 455.575 35.1738 455.962 34.875C456.354 34.5703 456.551 34.125 456.551 33.5391C456.551 32.9297 456.34 32.4961 455.918 32.2383C455.502 31.9805 454.854 31.8516 453.976 31.8516ZM467.748 42.4688L464.654 32.3877H464.575C464.587 32.6279 464.604 32.9912 464.628 33.4775C464.657 33.958 464.684 34.4707 464.707 35.0156C464.73 35.5605 464.742 36.0527 464.742 36.4922V42.4688H462.308V29.6191H466.017L469.058 39.4453H469.11L472.336 29.6191H476.045V42.4688H473.505V36.3867C473.505 35.9824 473.511 35.5166 473.522 34.9893C473.54 34.4619 473.561 33.9609 473.584 33.4863C473.607 33.0059 473.625 32.6455 473.637 32.4053H473.558L470.244 42.4688H467.748Z" fill="#F6F6F9"/>
<circle cx="496" cy="92.4688" r="18" fill="#63EEA8"/>
<circle cx="507" cy="121.469" r="7" fill="#EDFDF5"/>
<rect x="73" y="51" width="115" height="70" rx="35" fill="#0D7742"/>
<path d="M121.324 93H118.608V87.4541H113.52V93H110.795V80.1504H113.52V85.1865H118.608V80.1504H121.324V93ZM128.32 80.1504C129.486 80.1504 130.447 80.291 131.203 80.5723C131.965 80.8535 132.53 81.2783 132.899 81.8467C133.269 82.415 133.453 83.1328 133.453 84C133.453 84.5859 133.342 85.0986 133.119 85.5381C132.896 85.9775 132.604 86.3496 132.24 86.6543C131.877 86.959 131.484 87.208 131.062 87.4014L134.842 93H131.818L128.751 88.0693H127.301V93H124.576V80.1504H128.32ZM128.127 82.3828H127.301V85.8545H128.18C129.082 85.8545 129.727 85.7051 130.113 85.4062C130.506 85.1016 130.702 84.6562 130.702 84.0703C130.702 83.4609 130.491 83.0273 130.069 82.7695C129.653 82.5117 129.006 82.3828 128.127 82.3828ZM141.899 93L138.806 82.9189H138.727C138.738 83.1592 138.756 83.5225 138.779 84.0088C138.809 84.4893 138.835 85.002 138.858 85.5469C138.882 86.0918 138.894 86.584 138.894 87.0234V93H136.459V80.1504H140.168L143.209 89.9766H143.262L146.487 80.1504H150.196V93H147.656V86.918C147.656 86.5137 147.662 86.0479 147.674 85.5205C147.691 84.9932 147.712 84.4922 147.735 84.0176C147.759 83.5371 147.776 83.1768 147.788 82.9365H147.709L144.396 93H141.899Z" fill="#F6F6F9"/>
<circle cx="170" cy="143" r="18" fill="#63EEA8"/>
<circle cx="181" cy="172" r="7" fill="#EDFDF5"/>
<rect x="803" y="51" width="118" height="70" rx="35" fill="#0D7742"/>
<path d="M848.263 89.4316C848.263 90.1934 848.078 90.8555 847.709 91.418C847.34 91.9805 846.801 92.4141 846.092 92.7188C845.389 93.0234 844.533 93.1758 843.525 93.1758C843.08 93.1758 842.644 93.1465 842.216 93.0879C841.794 93.0293 841.387 92.9443 840.994 92.833C840.607 92.7158 840.238 92.5723 839.887 92.4023V89.8711C840.496 90.1406 841.129 90.3838 841.785 90.6006C842.441 90.8174 843.092 90.9258 843.736 90.9258C844.182 90.9258 844.539 90.8672 844.809 90.75C845.084 90.6328 845.283 90.4717 845.406 90.2666C845.529 90.0615 845.591 89.8271 845.591 89.5635C845.591 89.2412 845.482 88.9658 845.266 88.7373C845.049 88.5088 844.75 88.2949 844.369 88.0957C843.994 87.8965 843.569 87.6826 843.095 87.4541C842.796 87.3135 842.471 87.1436 842.119 86.9443C841.768 86.7393 841.434 86.4902 841.117 86.1973C840.801 85.9043 840.54 85.5498 840.335 85.1338C840.136 84.7119 840.036 84.208 840.036 83.6221C840.036 82.8545 840.212 82.1982 840.563 81.6533C840.915 81.1084 841.416 80.6924 842.066 80.4053C842.723 80.1123 843.496 79.9658 844.387 79.9658C845.055 79.9658 845.69 80.0449 846.294 80.2031C846.903 80.3555 847.539 80.5781 848.201 80.8711L847.322 82.9893C846.73 82.749 846.2 82.5645 845.731 82.4355C845.263 82.3008 844.785 82.2334 844.299 82.2334C843.959 82.2334 843.669 82.2891 843.429 82.4004C843.188 82.5059 843.007 82.6582 842.884 82.8574C842.761 83.0508 842.699 83.2764 842.699 83.5342C842.699 83.8389 842.787 84.0967 842.963 84.3076C843.145 84.5127 843.414 84.7119 843.771 84.9053C844.135 85.0986 844.586 85.3242 845.125 85.582C845.781 85.8926 846.341 86.2178 846.804 86.5576C847.272 86.8916 847.633 87.2871 847.885 87.7441C848.137 88.1953 848.263 88.7578 848.263 89.4316ZM854.406 82.9717C855.725 82.9717 856.735 83.2588 857.438 83.833C858.142 84.4072 858.493 85.2803 858.493 86.4521V93H856.621L856.103 91.6641H856.032C855.751 92.0156 855.464 92.3027 855.171 92.5254C854.878 92.748 854.541 92.9121 854.16 93.0176C853.779 93.123 853.316 93.1758 852.771 93.1758C852.191 93.1758 851.67 93.0645 851.207 92.8418C850.75 92.6191 850.39 92.2793 850.126 91.8223C849.862 91.3594 849.73 90.7734 849.73 90.0645C849.73 89.0215 850.097 88.2539 850.829 87.7617C851.562 87.2637 852.66 86.9883 854.125 86.9355L855.83 86.8828V86.4521C855.83 85.9365 855.695 85.5586 855.426 85.3184C855.156 85.0781 854.781 84.958 854.301 84.958C853.826 84.958 853.36 85.0254 852.903 85.1602C852.446 85.2949 851.989 85.4648 851.532 85.6699L850.645 83.8594C851.166 83.584 851.749 83.3672 852.394 83.209C853.044 83.0508 853.715 82.9717 854.406 82.9717ZM855.83 88.4473L854.793 88.4824C853.926 88.5059 853.322 88.6611 852.982 88.9482C852.648 89.2354 852.481 89.6133 852.481 90.082C852.481 90.4922 852.602 90.7852 852.842 90.9609C853.082 91.1309 853.396 91.2158 853.782 91.2158C854.356 91.2158 854.84 91.0459 855.232 90.7061C855.631 90.3662 855.83 89.8828 855.83 89.2559V88.4473ZM863.942 93H861.262V79.3242H863.942V93ZM870.815 82.9893C871.724 82.9893 872.506 83.165 873.162 83.5166C873.818 83.8623 874.325 84.3662 874.683 85.0283C875.04 85.6904 875.219 86.499 875.219 87.4541V88.7549H868.882C868.911 89.5107 869.137 90.1055 869.559 90.5391C869.986 90.9668 870.578 91.1807 871.334 91.1807C871.961 91.1807 872.535 91.1162 873.057 90.9873C873.578 90.8584 874.114 90.665 874.665 90.4072V92.4814C874.179 92.7217 873.669 92.8975 873.136 93.0088C872.608 93.1201 871.967 93.1758 871.211 93.1758C870.227 93.1758 869.354 92.9941 868.592 92.6309C867.836 92.2676 867.241 91.7139 866.808 90.9697C866.38 90.2256 866.166 89.2881 866.166 88.1572C866.166 87.0088 866.359 86.0537 866.746 85.292C867.139 84.5244 867.684 83.9502 868.381 83.5693C869.078 83.1826 869.89 82.9893 870.815 82.9893ZM870.833 84.8965C870.312 84.8965 869.878 85.0635 869.532 85.3975C869.192 85.7314 868.996 86.2559 868.943 86.9707H872.705C872.699 86.5723 872.626 86.2178 872.485 85.9072C872.351 85.5967 872.146 85.3506 871.87 85.1689C871.601 84.9873 871.255 84.8965 870.833 84.8965ZM884.254 90.082C884.254 90.75 884.096 91.3154 883.779 91.7783C883.469 92.2354 883.003 92.584 882.382 92.8242C881.761 93.0586 880.987 93.1758 880.062 93.1758C879.376 93.1758 878.787 93.1318 878.295 93.0439C877.809 92.9561 877.316 92.8096 876.818 92.6045V90.3896C877.352 90.6299 877.923 90.8291 878.532 90.9873C879.147 91.1396 879.687 91.2158 880.149 91.2158C880.671 91.2158 881.043 91.1396 881.266 90.9873C881.494 90.8291 881.608 90.624 881.608 90.3721C881.608 90.208 881.562 90.0615 881.468 89.9326C881.38 89.7979 881.187 89.6484 880.888 89.4844C880.589 89.3145 880.12 89.0947 879.481 88.8252C878.866 88.5674 878.359 88.3066 877.961 88.043C877.568 87.7793 877.275 87.4688 877.082 87.1113C876.895 86.748 876.801 86.2881 876.801 85.7314C876.801 84.8232 877.152 84.1406 877.855 83.6836C878.564 83.2207 879.511 82.9893 880.694 82.9893C881.304 82.9893 881.884 83.0508 882.435 83.1738C882.991 83.2969 883.562 83.4932 884.148 83.7627L883.34 85.6963C882.854 85.4854 882.394 85.3125 881.96 85.1777C881.532 85.043 881.096 84.9756 880.65 84.9756C880.258 84.9756 879.962 85.0283 879.763 85.1338C879.563 85.2393 879.464 85.4004 879.464 85.6172C879.464 85.7754 879.514 85.916 879.613 86.0391C879.719 86.1621 879.918 86.2998 880.211 86.4521C880.51 86.5986 880.946 86.7891 881.521 87.0234C882.077 87.252 882.561 87.4922 882.971 87.7441C883.381 87.9902 883.697 88.2979 883.92 88.667C884.143 89.0303 884.254 89.502 884.254 90.082Z" fill="#F6F6F9"/>
<circle cx="821" cy="143" r="18" fill="#63EEA8"/>
<circle cx="810" cy="172" r="7" fill="#EDFDF5"/>
<circle cx="757" cy="463" r="7" fill="#EDFDF5"/>
<circle cx="768" cy="492" r="18" fill="#63EEA8"/>
<rect x="750" y="514" width="160" height="70" rx="35" fill="#0D7742"/>
<path d="M787.672 556V543.15H790.396V556H787.672ZM799.001 545.989C800.05 545.989 800.894 546.276 801.532 546.851C802.171 547.419 802.49 548.333 802.49 549.593V556H799.81V550.261C799.81 549.558 799.681 549.027 799.423 548.67C799.171 548.312 798.772 548.134 798.228 548.134C797.407 548.134 796.848 548.412 796.549 548.969C796.25 549.525 796.101 550.328 796.101 551.377V556H793.42V546.174H795.468L795.828 547.431H795.978C796.188 547.091 796.449 546.815 796.76 546.604C797.076 546.394 797.425 546.238 797.806 546.139C798.192 546.039 798.591 545.989 799.001 545.989ZM807.588 556L803.844 546.174H806.647L808.546 551.772C808.651 552.101 808.733 552.446 808.792 552.81C808.856 553.173 808.9 553.498 808.924 553.785H808.994C809.012 553.475 809.053 553.144 809.117 552.792C809.188 552.44 809.278 552.101 809.39 551.772L811.279 546.174H814.083L810.339 556H807.588ZM819.55 545.989C820.458 545.989 821.24 546.165 821.896 546.517C822.553 546.862 823.06 547.366 823.417 548.028C823.774 548.69 823.953 549.499 823.953 550.454V551.755H817.616C817.646 552.511 817.871 553.105 818.293 553.539C818.721 553.967 819.312 554.181 820.068 554.181C820.695 554.181 821.27 554.116 821.791 553.987C822.312 553.858 822.849 553.665 823.399 553.407V555.481C822.913 555.722 822.403 555.897 821.87 556.009C821.343 556.12 820.701 556.176 819.945 556.176C818.961 556.176 818.088 555.994 817.326 555.631C816.57 555.268 815.976 554.714 815.542 553.97C815.114 553.226 814.9 552.288 814.9 551.157C814.9 550.009 815.094 549.054 815.48 548.292C815.873 547.524 816.418 546.95 817.115 546.569C817.812 546.183 818.624 545.989 819.55 545.989ZM819.567 547.896C819.046 547.896 818.612 548.063 818.267 548.397C817.927 548.731 817.73 549.256 817.678 549.971H821.439C821.434 549.572 821.36 549.218 821.22 548.907C821.085 548.597 820.88 548.351 820.604 548.169C820.335 547.987 819.989 547.896 819.567 547.896ZM831.714 545.989C832.763 545.989 833.606 546.276 834.245 546.851C834.884 547.419 835.203 548.333 835.203 549.593V556H832.522V550.261C832.522 549.558 832.394 549.027 832.136 548.67C831.884 548.312 831.485 548.134 830.94 548.134C830.12 548.134 829.561 548.412 829.262 548.969C828.963 549.525 828.813 550.328 828.813 551.377V556H826.133V546.174H828.181L828.541 547.431H828.69C828.901 547.091 829.162 546.815 829.473 546.604C829.789 546.394 830.138 546.238 830.519 546.139C830.905 546.039 831.304 545.989 831.714 545.989ZM842.103 554.04C842.396 554.04 842.68 554.011 842.955 553.952C843.236 553.894 843.515 553.82 843.79 553.732V555.728C843.503 555.856 843.146 555.962 842.718 556.044C842.296 556.132 841.833 556.176 841.329 556.176C840.743 556.176 840.216 556.082 839.747 555.895C839.284 555.701 838.918 555.37 838.648 554.901C838.385 554.427 838.253 553.768 838.253 552.924V548.187H836.97V547.053L838.446 546.156L839.22 544.082H840.934V546.174H843.685V548.187H840.934V552.924C840.934 553.299 841.039 553.58 841.25 553.768C841.467 553.949 841.751 554.04 842.103 554.04ZM854.715 551.069C854.715 551.89 854.604 552.616 854.381 553.249C854.164 553.882 853.845 554.418 853.423 554.857C853.007 555.291 852.503 555.619 851.911 555.842C851.325 556.064 850.663 556.176 849.925 556.176C849.233 556.176 848.598 556.064 848.018 555.842C847.443 555.619 846.942 555.291 846.515 554.857C846.093 554.418 845.765 553.882 845.53 553.249C845.302 552.616 845.188 551.89 845.188 551.069C845.188 549.979 845.381 549.057 845.768 548.301C846.154 547.545 846.705 546.971 847.42 546.578C848.135 546.186 848.987 545.989 849.978 545.989C850.897 545.989 851.712 546.186 852.421 546.578C853.136 546.971 853.695 547.545 854.1 548.301C854.51 549.057 854.715 549.979 854.715 551.069ZM847.921 551.069C847.921 551.714 847.991 552.256 848.132 552.695C848.272 553.135 848.492 553.466 848.791 553.688C849.09 553.911 849.479 554.022 849.96 554.022C850.435 554.022 850.818 553.911 851.111 553.688C851.41 553.466 851.627 553.135 851.762 552.695C851.902 552.256 851.973 551.714 851.973 551.069C851.973 550.419 851.902 549.88 851.762 549.452C851.627 549.019 851.41 548.693 851.111 548.477C850.812 548.26 850.423 548.151 849.942 548.151C849.233 548.151 848.718 548.395 848.396 548.881C848.079 549.367 847.921 550.097 847.921 551.069ZM862.414 545.989C862.549 545.989 862.704 545.998 862.88 546.016C863.062 546.027 863.208 546.045 863.319 546.068L863.117 548.582C863.029 548.553 862.903 548.532 862.739 548.521C862.581 548.503 862.443 548.494 862.326 548.494C861.98 548.494 861.644 548.538 861.315 548.626C860.993 548.714 860.703 548.857 860.445 549.057C860.188 549.25 859.982 549.508 859.83 549.83C859.684 550.146 859.61 550.536 859.61 550.999V556H856.93V546.174H858.96L859.355 547.826H859.487C859.681 547.492 859.921 547.188 860.208 546.912C860.501 546.631 860.832 546.408 861.201 546.244C861.576 546.074 861.98 545.989 862.414 545.989ZM863.697 546.174H866.633L868.487 551.702C868.546 551.878 868.596 552.057 868.637 552.238C868.678 552.42 868.713 552.607 868.742 552.801C868.771 552.994 868.795 553.196 868.812 553.407H868.865C868.9 553.091 868.947 552.795 869.006 552.52C869.07 552.244 869.149 551.972 869.243 551.702L871.062 546.174H873.937L869.779 557.257C869.527 557.937 869.199 558.502 868.795 558.953C868.391 559.41 867.925 559.753 867.397 559.981C866.876 560.21 866.302 560.324 865.675 560.324C865.37 560.324 865.106 560.307 864.884 560.271C864.661 560.242 864.471 560.21 864.312 560.175V558.048C864.436 558.077 864.591 558.104 864.778 558.127C864.966 558.15 865.162 558.162 865.367 558.162C865.742 558.162 866.064 558.083 866.334 557.925C866.604 557.767 866.829 557.553 867.011 557.283C867.192 557.02 867.336 556.729 867.441 556.413L867.6 555.93L863.697 546.174Z" fill="#F6F6F9"/>
<circle cx="167" cy="463" r="7" fill="#EDFDF5"/>
<circle cx="156" cy="492" r="18" fill="#63EEA8"/>
<rect y="514" width="174" height="70" rx="35" fill="#0D7742"/>
<path d="M45.9375 556L45.0059 552.941H40.3213L39.3896 556H36.4541L40.9893 543.098H44.3203L48.873 556H45.9375ZM44.3555 550.656L43.4238 547.668C43.3652 547.469 43.2861 547.214 43.1865 546.903C43.0928 546.587 42.9961 546.268 42.8965 545.945C42.8027 545.617 42.7266 545.333 42.668 545.093C42.6094 545.333 42.5273 545.632 42.4219 545.989C42.3223 546.341 42.2256 546.675 42.1318 546.991C42.0381 547.308 41.9707 547.533 41.9297 547.668L41.0068 550.656H44.3555ZM54.2783 556.176C53.3057 556.176 52.4766 556 51.791 555.648C51.1055 555.291 50.584 554.74 50.2266 553.996C49.8691 553.252 49.6904 552.3 49.6904 551.14C49.6904 549.938 49.8926 548.96 50.2969 548.204C50.707 547.442 51.2725 546.883 51.9932 546.525C52.7197 546.168 53.5605 545.989 54.5156 545.989C55.1953 545.989 55.7812 546.057 56.2734 546.191C56.7715 546.32 57.2051 546.476 57.5742 546.657L56.7832 548.731C56.3613 548.562 55.9688 548.424 55.6055 548.318C55.2422 548.207 54.8789 548.151 54.5156 548.151C54.0469 548.151 53.6572 548.263 53.3467 548.485C53.0361 548.702 52.8047 549.03 52.6523 549.47C52.5 549.909 52.4238 550.46 52.4238 551.122C52.4238 551.772 52.5059 552.312 52.6699 552.739C52.834 553.167 53.0713 553.486 53.3818 553.697C53.6924 553.902 54.0703 554.005 54.5156 554.005C55.0723 554.005 55.5674 553.932 56.001 553.785C56.4346 553.633 56.8564 553.422 57.2666 553.152V555.446C56.8564 555.704 56.4258 555.889 55.9746 556C55.5293 556.117 54.9639 556.176 54.2783 556.176ZM63.542 556.176C62.5693 556.176 61.7402 556 61.0547 555.648C60.3691 555.291 59.8477 554.74 59.4902 553.996C59.1328 553.252 58.9541 552.3 58.9541 551.14C58.9541 549.938 59.1562 548.96 59.5605 548.204C59.9707 547.442 60.5361 546.883 61.2568 546.525C61.9834 546.168 62.8242 545.989 63.7793 545.989C64.459 545.989 65.0449 546.057 65.5371 546.191C66.0352 546.32 66.4688 546.476 66.8379 546.657L66.0469 548.731C65.625 548.562 65.2324 548.424 64.8691 548.318C64.5059 548.207 64.1426 548.151 63.7793 548.151C63.3105 548.151 62.9209 548.263 62.6104 548.485C62.2998 548.702 62.0684 549.03 61.916 549.47C61.7637 549.909 61.6875 550.46 61.6875 551.122C61.6875 551.772 61.7695 552.312 61.9336 552.739C62.0977 553.167 62.335 553.486 62.6455 553.697C62.9561 553.902 63.334 554.005 63.7793 554.005C64.3359 554.005 64.8311 553.932 65.2646 553.785C65.6982 553.633 66.1201 553.422 66.5303 553.152V555.446C66.1201 555.704 65.6895 555.889 65.2383 556C64.793 556.117 64.2275 556.176 63.542 556.176ZM77.7451 551.069C77.7451 551.89 77.6338 552.616 77.4111 553.249C77.1943 553.882 76.875 554.418 76.4531 554.857C76.0371 555.291 75.5332 555.619 74.9414 555.842C74.3555 556.064 73.6934 556.176 72.9551 556.176C72.2637 556.176 71.6279 556.064 71.0479 555.842C70.4736 555.619 69.9727 555.291 69.5449 554.857C69.123 554.418 68.7949 553.882 68.5605 553.249C68.332 552.616 68.2178 551.89 68.2178 551.069C68.2178 549.979 68.4111 549.057 68.7979 548.301C69.1846 547.545 69.7354 546.971 70.4502 546.578C71.165 546.186 72.0176 545.989 73.0078 545.989C73.9277 545.989 74.7422 546.186 75.4512 546.578C76.166 546.971 76.7256 547.545 77.1299 548.301C77.54 549.057 77.7451 549.979 77.7451 551.069ZM70.9512 551.069C70.9512 551.714 71.0215 552.256 71.1621 552.695C71.3027 553.135 71.5225 553.466 71.8213 553.688C72.1201 553.911 72.5098 554.022 72.9902 554.022C73.4648 554.022 73.8486 553.911 74.1416 553.688C74.4404 553.466 74.6572 553.135 74.792 552.695C74.9326 552.256 75.0029 551.714 75.0029 551.069C75.0029 550.419 74.9326 549.88 74.792 549.452C74.6572 549.019 74.4404 548.693 74.1416 548.477C73.8428 548.26 73.4531 548.151 72.9727 548.151C72.2637 548.151 71.748 548.395 71.4258 548.881C71.1094 549.367 70.9512 550.097 70.9512 551.069ZM88.9775 546.174V556H86.9209L86.5605 554.743H86.4199C86.209 555.077 85.9453 555.35 85.6289 555.561C85.3125 555.771 84.9639 555.927 84.583 556.026C84.2021 556.126 83.8066 556.176 83.3965 556.176C82.6934 556.176 82.0811 556.053 81.5596 555.807C81.0381 555.555 80.6309 555.165 80.3379 554.638C80.0508 554.11 79.9072 553.425 79.9072 552.581V546.174H82.5879V551.913C82.5879 552.616 82.7139 553.146 82.9658 553.504C83.2178 553.861 83.6191 554.04 84.1699 554.04C84.7148 554.04 85.1426 553.917 85.4531 553.671C85.7637 553.419 85.9805 553.053 86.1035 552.572C86.2324 552.086 86.2969 551.494 86.2969 550.797V546.174H88.9775ZM97.3711 545.989C98.4199 545.989 99.2637 546.276 99.9023 546.851C100.541 547.419 100.86 548.333 100.86 549.593V556H98.1797V550.261C98.1797 549.558 98.0508 549.027 97.793 548.67C97.541 548.312 97.1426 548.134 96.5977 548.134C95.7773 548.134 95.2178 548.412 94.9189 548.969C94.6201 549.525 94.4707 550.328 94.4707 551.377V556H91.79V546.174H93.8379L94.1982 547.431H94.3477C94.5586 547.091 94.8193 546.815 95.1299 546.604C95.4463 546.394 95.7949 546.238 96.1758 546.139C96.5625 546.039 96.9609 545.989 97.3711 545.989ZM107.76 554.04C108.053 554.04 108.337 554.011 108.612 553.952C108.894 553.894 109.172 553.82 109.447 553.732V555.728C109.16 555.856 108.803 555.962 108.375 556.044C107.953 556.132 107.49 556.176 106.986 556.176C106.4 556.176 105.873 556.082 105.404 555.895C104.941 555.701 104.575 555.37 104.306 554.901C104.042 554.427 103.91 553.768 103.91 552.924V548.187H102.627V547.053L104.104 546.156L104.877 544.082H106.591V546.174H109.342V548.187H106.591V552.924C106.591 553.299 106.696 553.58 106.907 553.768C107.124 553.949 107.408 554.04 107.76 554.04ZM114.123 546.174V556H111.442V546.174H114.123ZM112.787 542.324C113.186 542.324 113.528 542.418 113.815 542.605C114.103 542.787 114.246 543.13 114.246 543.634C114.246 544.132 114.103 544.478 113.815 544.671C113.528 544.858 113.186 544.952 112.787 544.952C112.383 544.952 112.037 544.858 111.75 544.671C111.469 544.478 111.328 544.132 111.328 543.634C111.328 543.13 111.469 542.787 111.75 542.605C112.037 542.418 112.383 542.324 112.787 542.324ZM122.525 545.989C123.574 545.989 124.418 546.276 125.057 546.851C125.695 547.419 126.015 548.333 126.015 549.593V556H123.334V550.261C123.334 549.558 123.205 549.027 122.947 548.67C122.695 548.312 122.297 548.134 121.752 548.134C120.932 548.134 120.372 548.412 120.073 548.969C119.774 549.525 119.625 550.328 119.625 551.377V556H116.944V546.174H118.992L119.353 547.431H119.502C119.713 547.091 119.974 546.815 120.284 546.604C120.601 546.394 120.949 546.238 121.33 546.139C121.717 546.039 122.115 545.989 122.525 545.989ZM131.648 560.324C130.277 560.324 129.229 560.084 128.502 559.604C127.781 559.129 127.421 558.461 127.421 557.6C127.421 557.008 127.605 556.513 127.975 556.114C128.344 555.716 128.886 555.432 129.601 555.262C129.325 555.145 129.085 554.954 128.88 554.69C128.675 554.421 128.572 554.137 128.572 553.838C128.572 553.463 128.681 553.152 128.897 552.906C129.114 552.654 129.428 552.408 129.838 552.168C129.322 551.945 128.912 551.588 128.607 551.096C128.309 550.604 128.159 550.023 128.159 549.355C128.159 548.641 128.314 548.034 128.625 547.536C128.941 547.032 129.398 546.648 129.996 546.385C130.6 546.121 131.332 545.989 132.193 545.989C132.375 545.989 132.586 546.001 132.826 546.024C133.066 546.048 133.286 546.074 133.485 546.104C133.69 546.133 133.828 546.156 133.898 546.174H137.326V547.536L135.788 547.932C135.929 548.148 136.034 548.38 136.104 548.626C136.175 548.872 136.21 549.133 136.21 549.408C136.21 550.463 135.841 551.286 135.103 551.878C134.37 552.464 133.351 552.757 132.044 552.757C131.733 552.739 131.44 552.716 131.165 552.687C131.03 552.792 130.928 552.903 130.857 553.021C130.787 553.138 130.752 553.261 130.752 553.39C130.752 553.519 130.805 553.627 130.91 553.715C131.021 553.797 131.186 553.861 131.402 553.908C131.625 553.949 131.9 553.97 132.229 553.97H133.898C134.977 553.97 135.797 554.201 136.359 554.664C136.928 555.127 137.212 555.807 137.212 556.703C137.212 557.852 136.731 558.742 135.771 559.375C134.815 560.008 133.441 560.324 131.648 560.324ZM131.763 558.575C132.401 558.575 132.949 558.514 133.406 558.391C133.869 558.273 134.224 558.104 134.47 557.881C134.716 557.664 134.839 557.403 134.839 557.099C134.839 556.853 134.766 556.656 134.619 556.51C134.479 556.369 134.262 556.27 133.969 556.211C133.682 556.152 133.312 556.123 132.861 556.123H131.473C131.145 556.123 130.849 556.176 130.585 556.281C130.327 556.387 130.122 556.533 129.97 556.721C129.817 556.914 129.741 557.137 129.741 557.389C129.741 557.758 129.917 558.048 130.269 558.259C130.626 558.47 131.124 558.575 131.763 558.575ZM132.193 551.122C132.697 551.122 133.066 550.967 133.301 550.656C133.535 550.346 133.652 549.924 133.652 549.391C133.652 548.799 133.529 548.356 133.283 548.063C133.043 547.765 132.68 547.615 132.193 547.615C131.701 547.615 131.332 547.765 131.086 548.063C130.84 548.356 130.717 548.799 130.717 549.391C130.717 549.924 130.837 550.346 131.077 550.656C131.323 550.967 131.695 551.122 132.193 551.122Z" fill="#F6F6F9"/>
<circle cx="458.5" cy="573.469" r="7" fill="#EDFDF5"/>
<circle cx="458.5" cy="602.469" r="18" fill="#63EEA8"/>
<rect x="347" y="624.469" width="223" height="70" rx="35" fill="#0D7742"/>
<path d="M390.569 655.702C390.048 655.702 389.585 655.805 389.181 656.01C388.782 656.209 388.445 656.499 388.17 656.88C387.9 657.261 387.695 657.721 387.555 658.26C387.414 658.799 387.344 659.405 387.344 660.079C387.344 660.987 387.455 661.764 387.678 662.408C387.906 663.047 388.258 663.536 388.732 663.876C389.207 664.21 389.819 664.377 390.569 664.377C391.091 664.377 391.612 664.318 392.134 664.201C392.661 664.084 393.232 663.917 393.848 663.7V665.985C393.279 666.22 392.72 666.387 392.169 666.486C391.618 666.592 391 666.645 390.314 666.645C388.99 666.645 387.9 666.372 387.045 665.827C386.195 665.276 385.565 664.509 385.155 663.524C384.745 662.534 384.54 661.38 384.54 660.062C384.54 659.089 384.672 658.198 384.936 657.39C385.199 656.581 385.586 655.881 386.096 655.289C386.605 654.697 387.235 654.24 387.985 653.918C388.735 653.596 389.597 653.435 390.569 653.435C391.208 653.435 391.847 653.517 392.485 653.681C393.13 653.839 393.745 654.059 394.331 654.34L393.452 656.555C392.972 656.326 392.488 656.127 392.002 655.957C391.516 655.787 391.038 655.702 390.569 655.702ZM405.396 656.643V666.469H403.34L402.979 665.212H402.839C402.628 665.546 402.364 665.818 402.048 666.029C401.731 666.24 401.383 666.396 401.002 666.495C400.621 666.595 400.226 666.645 399.815 666.645C399.112 666.645 398.5 666.521 397.979 666.275C397.457 666.023 397.05 665.634 396.757 665.106C396.47 664.579 396.326 663.894 396.326 663.05V656.643H399.007V662.382C399.007 663.085 399.133 663.615 399.385 663.973C399.637 664.33 400.038 664.509 400.589 664.509C401.134 664.509 401.562 664.386 401.872 664.14C402.183 663.888 402.399 663.521 402.522 663.041C402.651 662.555 402.716 661.963 402.716 661.266V656.643H405.396ZM415.064 663.551C415.064 664.219 414.906 664.784 414.59 665.247C414.279 665.704 413.813 666.053 413.192 666.293C412.571 666.527 411.798 666.645 410.872 666.645C410.187 666.645 409.598 666.601 409.105 666.513C408.619 666.425 408.127 666.278 407.629 666.073V663.858C408.162 664.099 408.733 664.298 409.343 664.456C409.958 664.608 410.497 664.685 410.96 664.685C411.481 664.685 411.854 664.608 412.076 664.456C412.305 664.298 412.419 664.093 412.419 663.841C412.419 663.677 412.372 663.53 412.278 663.401C412.19 663.267 411.997 663.117 411.698 662.953C411.399 662.783 410.931 662.563 410.292 662.294C409.677 662.036 409.17 661.775 408.771 661.512C408.379 661.248 408.086 660.938 407.893 660.58C407.705 660.217 407.611 659.757 407.611 659.2C407.611 658.292 407.963 657.609 408.666 657.152C409.375 656.689 410.321 656.458 411.505 656.458C412.114 656.458 412.694 656.52 413.245 656.643C413.802 656.766 414.373 656.962 414.959 657.231L414.15 659.165C413.664 658.954 413.204 658.781 412.771 658.646C412.343 658.512 411.906 658.444 411.461 658.444C411.068 658.444 410.772 658.497 410.573 658.603C410.374 658.708 410.274 658.869 410.274 659.086C410.274 659.244 410.324 659.385 410.424 659.508C410.529 659.631 410.729 659.769 411.021 659.921C411.32 660.067 411.757 660.258 412.331 660.492C412.888 660.721 413.371 660.961 413.781 661.213C414.191 661.459 414.508 661.767 414.73 662.136C414.953 662.499 415.064 662.971 415.064 663.551ZM421.296 664.509C421.589 664.509 421.873 664.479 422.148 664.421C422.43 664.362 422.708 664.289 422.983 664.201V666.196C422.696 666.325 422.339 666.431 421.911 666.513C421.489 666.601 421.026 666.645 420.522 666.645C419.937 666.645 419.409 666.551 418.94 666.363C418.478 666.17 418.111 665.839 417.842 665.37C417.578 664.896 417.446 664.236 417.446 663.393V658.655H416.163V657.521L417.64 656.625L418.413 654.551H420.127V656.643H422.878V658.655H420.127V663.393C420.127 663.768 420.232 664.049 420.443 664.236C420.66 664.418 420.944 664.509 421.296 664.509ZM433.908 661.538C433.908 662.358 433.797 663.085 433.574 663.718C433.357 664.351 433.038 664.887 432.616 665.326C432.2 665.76 431.696 666.088 431.104 666.311C430.519 666.533 429.856 666.645 429.118 666.645C428.427 666.645 427.791 666.533 427.211 666.311C426.637 666.088 426.136 665.76 425.708 665.326C425.286 664.887 424.958 664.351 424.724 663.718C424.495 663.085 424.381 662.358 424.381 661.538C424.381 660.448 424.574 659.525 424.961 658.77C425.348 658.014 425.898 657.439 426.613 657.047C427.328 656.654 428.181 656.458 429.171 656.458C430.091 656.458 430.905 656.654 431.614 657.047C432.329 657.439 432.889 658.014 433.293 658.77C433.703 659.525 433.908 660.448 433.908 661.538ZM427.114 661.538C427.114 662.183 427.185 662.725 427.325 663.164C427.466 663.604 427.686 663.935 427.984 664.157C428.283 664.38 428.673 664.491 429.153 664.491C429.628 664.491 430.012 664.38 430.305 664.157C430.604 663.935 430.82 663.604 430.955 663.164C431.096 662.725 431.166 662.183 431.166 661.538C431.166 660.888 431.096 660.349 430.955 659.921C430.82 659.487 430.604 659.162 430.305 658.945C430.006 658.729 429.616 658.62 429.136 658.62C428.427 658.62 427.911 658.863 427.589 659.35C427.272 659.836 427.114 660.565 427.114 661.538ZM447.663 656.458C448.776 656.458 449.617 656.745 450.186 657.319C450.76 657.888 451.047 658.802 451.047 660.062V666.469H448.357V660.729C448.357 660.026 448.237 659.496 447.997 659.139C447.757 658.781 447.385 658.603 446.881 658.603C446.172 658.603 445.668 658.857 445.369 659.367C445.07 659.871 444.921 660.595 444.921 661.538V666.469H442.24V660.729C442.24 660.261 442.188 659.868 442.082 659.552C441.977 659.235 441.815 658.998 441.599 658.84C441.382 658.682 441.104 658.603 440.764 658.603C440.266 658.603 439.873 658.729 439.586 658.98C439.305 659.227 439.103 659.593 438.979 660.079C438.862 660.56 438.804 661.148 438.804 661.846V666.469H436.123V656.643H438.171L438.531 657.899H438.681C438.88 657.56 439.129 657.284 439.428 657.073C439.732 656.862 440.066 656.707 440.43 656.607C440.793 656.508 441.162 656.458 441.537 656.458C442.258 656.458 442.867 656.575 443.365 656.81C443.869 657.044 444.256 657.407 444.525 657.899H444.763C445.056 657.396 445.469 657.029 446.002 656.801C446.541 656.572 447.095 656.458 447.663 656.458ZM464.134 666.469L461.04 656.388H460.961C460.973 656.628 460.99 656.991 461.014 657.478C461.043 657.958 461.069 658.471 461.093 659.016C461.116 659.561 461.128 660.053 461.128 660.492V666.469H458.693V653.619H462.402L465.443 663.445H465.496L468.722 653.619H472.431V666.469H469.891V660.387C469.891 659.982 469.896 659.517 469.908 658.989C469.926 658.462 469.946 657.961 469.97 657.486C469.993 657.006 470.011 656.646 470.022 656.405H469.943L466.63 666.469H464.134ZM484.393 661.538C484.393 662.358 484.281 663.085 484.059 663.718C483.842 664.351 483.522 664.887 483.101 665.326C482.685 665.76 482.181 666.088 481.589 666.311C481.003 666.533 480.341 666.645 479.603 666.645C478.911 666.645 478.275 666.533 477.695 666.311C477.121 666.088 476.62 665.76 476.192 665.326C475.771 664.887 475.442 664.351 475.208 663.718C474.979 663.085 474.865 662.358 474.865 661.538C474.865 660.448 475.059 659.525 475.445 658.77C475.832 658.014 476.383 657.439 477.098 657.047C477.812 656.654 478.665 656.458 479.655 656.458C480.575 656.458 481.39 656.654 482.099 657.047C482.813 657.439 483.373 658.014 483.777 658.77C484.188 659.525 484.393 660.448 484.393 661.538ZM477.599 661.538C477.599 662.183 477.669 662.725 477.81 663.164C477.95 663.604 478.17 663.935 478.469 664.157C478.768 664.38 479.157 664.491 479.638 664.491C480.112 664.491 480.496 664.38 480.789 664.157C481.088 663.935 481.305 663.604 481.439 663.164C481.58 662.725 481.65 662.183 481.65 661.538C481.65 660.888 481.58 660.349 481.439 659.921C481.305 659.487 481.088 659.162 480.789 658.945C480.49 658.729 480.101 658.62 479.62 658.62C478.911 658.62 478.396 658.863 478.073 659.35C477.757 659.836 477.599 660.565 477.599 661.538ZM489.719 666.645C488.623 666.645 487.729 666.217 487.038 665.361C486.353 664.5 486.01 663.237 486.01 661.573C486.01 659.892 486.358 658.62 487.056 657.759C487.753 656.892 488.664 656.458 489.789 656.458C490.258 656.458 490.671 656.522 491.028 656.651C491.386 656.78 491.693 656.953 491.951 657.17C492.215 657.387 492.438 657.63 492.619 657.899H492.707C492.672 657.712 492.628 657.437 492.575 657.073C492.528 656.704 492.505 656.326 492.505 655.939V652.793H495.194V666.469H493.138L492.619 665.194H492.505C492.335 665.464 492.121 665.71 491.863 665.933C491.611 666.149 491.31 666.322 490.958 666.451C490.606 666.58 490.193 666.645 489.719 666.645ZM490.659 664.509C491.392 664.509 491.907 664.292 492.206 663.858C492.511 663.419 492.672 662.76 492.689 661.881V661.591C492.689 660.636 492.543 659.906 492.25 659.402C491.957 658.893 491.412 658.638 490.615 658.638C490.023 658.638 489.561 658.893 489.227 659.402C488.893 659.912 488.726 660.647 488.726 661.608C488.726 662.569 488.893 663.293 489.227 663.779C489.566 664.266 490.044 664.509 490.659 664.509ZM507.016 656.643V666.469H504.959L504.599 665.212H504.458C504.247 665.546 503.983 665.818 503.667 666.029C503.351 666.24 503.002 666.396 502.621 666.495C502.24 666.595 501.845 666.645 501.435 666.645C500.731 666.645 500.119 666.521 499.598 666.275C499.076 666.023 498.669 665.634 498.376 665.106C498.089 664.579 497.945 663.894 497.945 663.05V656.643H500.626V662.382C500.626 663.085 500.752 663.615 501.004 663.973C501.256 664.33 501.657 664.509 502.208 664.509C502.753 664.509 503.181 664.386 503.491 664.14C503.802 663.888 504.019 663.521 504.142 663.041C504.271 662.555 504.335 661.963 504.335 661.266V656.643H507.016ZM512.509 666.469H509.828V652.793H512.509V666.469ZM519.382 656.458C520.29 656.458 521.072 656.634 521.729 656.985C522.385 657.331 522.892 657.835 523.249 658.497C523.606 659.159 523.785 659.968 523.785 660.923V662.224H517.448C517.478 662.979 517.703 663.574 518.125 664.008C518.553 664.436 519.145 664.649 519.9 664.649C520.527 664.649 521.102 664.585 521.623 664.456C522.145 664.327 522.681 664.134 523.231 663.876V665.95C522.745 666.19 522.235 666.366 521.702 666.478C521.175 666.589 520.533 666.645 519.777 666.645C518.793 666.645 517.92 666.463 517.158 666.1C516.402 665.736 515.808 665.183 515.374 664.438C514.946 663.694 514.732 662.757 514.732 661.626C514.732 660.478 514.926 659.522 515.312 658.761C515.705 657.993 516.25 657.419 516.947 657.038C517.645 656.651 518.456 656.458 519.382 656.458ZM519.399 658.365C518.878 658.365 518.444 658.532 518.099 658.866C517.759 659.2 517.562 659.725 517.51 660.439H521.271C521.266 660.041 521.192 659.687 521.052 659.376C520.917 659.065 520.712 658.819 520.437 658.638C520.167 658.456 519.821 658.365 519.399 658.365ZM532.82 663.551C532.82 664.219 532.662 664.784 532.346 665.247C532.035 665.704 531.569 666.053 530.948 666.293C530.327 666.527 529.554 666.645 528.628 666.645C527.942 666.645 527.354 666.601 526.861 666.513C526.375 666.425 525.883 666.278 525.385 666.073V663.858C525.918 664.099 526.489 664.298 527.099 664.456C527.714 664.608 528.253 664.685 528.716 664.685C529.237 664.685 529.609 664.608 529.832 664.456C530.061 664.298 530.175 664.093 530.175 663.841C530.175 663.677 530.128 663.53 530.034 663.401C529.946 663.267 529.753 663.117 529.454 662.953C529.155 662.783 528.687 662.563 528.048 662.294C527.433 662.036 526.926 661.775 526.527 661.512C526.135 661.248 525.842 660.938 525.648 660.58C525.461 660.217 525.367 659.757 525.367 659.2C525.367 658.292 525.719 657.609 526.422 657.152C527.131 656.689 528.077 656.458 529.261 656.458C529.87 656.458 530.45 656.52 531.001 656.643C531.558 656.766 532.129 656.962 532.715 657.231L531.906 659.165C531.42 658.954 530.96 658.781 530.526 658.646C530.099 658.512 529.662 658.444 529.217 658.444C528.824 658.444 528.528 658.497 528.329 658.603C528.13 658.708 528.03 658.869 528.03 659.086C528.03 659.244 528.08 659.385 528.18 659.508C528.285 659.631 528.484 659.769 528.777 659.921C529.076 660.067 529.513 660.258 530.087 660.492C530.644 660.721 531.127 660.961 531.537 661.213C531.947 661.459 532.264 661.767 532.486 662.136C532.709 662.499 532.82 662.971 532.82 663.551Z" fill="#F6F6F9"/>
</svg>
