<svg width="300" height="58" viewBox="0 0 300 58" fill="none" xmlns="http://www.w3.org/2000/svg">
<path fill-rule="evenodd" clip-rule="evenodd" d="M34.2969 28.2705V28.9658L52.3715 57.4682H69.0558L51.396 28.2705H34.2969Z" fill="#256A33"/>
<path fill-rule="evenodd" clip-rule="evenodd" d="M25.2656 43.9374L16.6853 57.4679H0.00103951L16.6389 29.96L25.2656 43.9374Z" fill="#066BA3"/>
<path d="M0 0H16.6843L34.759 28.2706V57.4681L0 0Z" fill="#256A33"/>
<path fill-rule="evenodd" clip-rule="evenodd" d="M34.7578 28.2706L51.9056 0L60.4794 14.367L34.7578 57.4681V28.2706Z" fill="#256A33"/>
<path d="M53.2969 0H69.0543V14.367H61.639L53.2969 0Z" fill="#066BA3"/>
<path d="M93.8864 17.4273C94.7235 17.9101 95.0897 19.101 94.7235 20.131L88.8901 35.8705C87.9223 38.5099 85.7511 40.2158 83.3968 40.2158C81.0164 40.2158 78.8714 38.5099 77.8774 35.8705L72.0441 20.131C71.6778 19.101 72.0441 17.9101 72.8811 17.4273C73.7182 16.9767 74.7122 17.4273 75.0784 18.4573L80.9118 34.1646C81.3565 35.3556 82.3244 36.128 83.3968 36.128C84.4432 36.128 85.4111 35.3556 85.8557 34.1646L91.6891 18.4573C92.0815 17.4273 93.0493 16.9767 93.8864 17.4273Z" fill="#0C0C13"/>
<path d="M114.911 21.6267L120.747 37.3206C121.113 38.3497 120.747 39.5718 119.909 40.0221C119.7 40.1507 119.465 40.215 119.229 40.215C118.601 40.215 117.999 39.7648 117.711 39.0251L111.901 23.299C111.456 22.1091 110.462 21.3694 109.415 21.3694C108.342 21.3694 107.374 22.1091 106.929 23.299L101.093 39.0251C100.727 40.0542 99.7322 40.5045 98.8947 40.0221C98.0573 39.5718 97.6909 38.3497 98.0835 37.3206L103.893 21.6267C104.888 18.9896 107.034 17.2529 109.415 17.2529C111.77 17.2529 113.943 18.9896 114.911 21.6267ZM109.415 29.1521C111.064 29.1521 112.399 30.7922 112.399 32.8183C112.399 34.8443 111.064 36.4845 109.415 36.4845C107.766 36.4845 106.432 34.8443 106.432 32.8183C106.432 30.7922 107.766 29.1521 109.415 29.1521Z" fill="#0C0C13"/>
<path d="M143.764 36.1314C144.649 36.1314 145.382 37.0319 145.382 38.1575C145.382 39.3153 144.649 40.2158 143.764 40.2158H130.136C129.251 40.2158 128.543 39.3153 128.543 38.1575V19.3112C128.543 18.1856 129.251 17.2529 130.136 17.2529C131.021 17.2529 131.754 18.1856 131.754 19.3112V36.1314H143.764Z" fill="#0C0C13"/>
<path d="M270.775 17.2529C271.702 17.2529 272.444 18.1856 272.444 19.3112V38.1575C272.444 38.9937 272.047 39.7334 271.437 40.055C271.225 40.1515 270.987 40.2158 270.775 40.2158C270.351 40.2158 269.927 40.0229 269.609 39.6691L255.908 24.0389V38.1575C255.908 39.3153 255.166 40.2158 254.239 40.2158C253.311 40.2158 252.543 39.3153 252.543 38.1575V19.3112C252.543 18.5072 252.94 17.7675 253.576 17.4459C254.186 17.1243 254.901 17.2529 255.378 17.8318L269.079 33.4299V19.3112C269.079 18.1856 269.821 17.2529 270.775 17.2529Z" fill="#0C0C13"/>
<path d="M243.347 17.2529C244.191 17.2529 244.89 18.1856 244.89 19.3112V38.1575C244.89 39.3153 244.191 40.2158 243.347 40.2158C242.503 40.2158 241.828 39.3153 241.828 38.1575V19.3112C241.828 18.1856 242.503 17.2529 243.347 17.2529Z" fill="#0C0C13"/>
<path d="M231.629 17.4162C232.242 17.7378 232.642 18.4774 232.642 19.3135V38.1577C232.642 39.3154 231.895 40.2158 230.962 40.2158C230.029 40.2158 229.255 39.3154 229.255 38.1577V24.1049L220.803 33.913C220.189 34.6526 219.07 34.6526 218.456 33.913L210.004 24.1049V38.1577C210.004 39.3154 209.23 40.2158 208.297 40.2158C207.364 40.2158 206.617 39.3154 206.617 38.1577V19.3135C206.617 18.4774 207.017 17.7378 207.63 17.4162C208.27 17.0946 208.99 17.2554 209.47 17.8342L219.629 29.6039L229.789 17.8342C230.269 17.2554 230.989 17.0946 231.629 17.4162Z" fill="#0C0C13"/>
<path d="M197.268 17.2529C198.195 17.2529 198.964 18.1856 198.964 19.3112C198.964 20.4369 198.195 21.3374 197.268 21.3374H180.732C179.804 21.3374 179.062 20.4369 179.062 19.3112C179.062 18.1856 179.804 17.2529 180.732 17.2529H197.268ZM197.268 36.1314C198.195 36.1314 198.964 37.0319 198.964 38.1575C198.964 39.3153 198.195 40.2158 197.268 40.2158H180.732C179.804 40.2158 179.062 39.3153 179.062 38.1575C179.062 37.0319 179.804 36.1314 180.732 36.1314H197.268ZM197.268 26.7082C198.195 26.7082 198.964 27.6087 198.964 28.7344C198.964 29.86 198.195 30.7927 197.268 30.7927H180.732C179.804 30.7927 179.062 29.86 179.062 28.7344C179.062 27.6087 179.804 26.7082 180.732 26.7082H197.268Z" fill="#0C0C13"/>
<path d="M298.303 17.2529C299.23 17.2529 299.999 18.1856 299.999 19.3112C299.999 20.4369 299.23 21.3374 298.303 21.3374H281.767C280.84 21.3374 280.098 20.4369 280.098 19.3112C280.098 18.1856 280.84 17.2529 281.767 17.2529H298.303ZM298.303 36.1314C299.23 36.1314 299.999 37.0319 299.999 38.1575C299.999 39.3153 299.23 40.2158 298.303 40.2158H281.767C280.84 40.2158 280.098 39.3153 280.098 38.1575C280.098 37.0319 280.84 36.1314 281.767 36.1314H298.303ZM298.303 26.7082C299.23 26.7082 299.999 27.6087 299.999 28.7344C299.999 29.86 299.23 30.7927 298.303 30.7927H281.767C280.84 30.7927 280.098 29.86 280.098 28.7344C280.098 27.6087 280.84 26.7082 281.767 26.7082H298.303Z" fill="#0C0C13"/>
<path d="M169.739 17.2529C170.667 17.2529 171.409 18.1856 171.409 19.3112V28.7344C171.409 30.2781 171.223 31.7575 170.826 33.0761C170.428 34.4912 169.819 35.7454 169.024 36.8068C167.328 39.0259 164.917 40.2158 162.055 40.2158H160.862C158.027 40.2158 155.615 39.0259 153.919 36.8068C153.124 35.7454 152.515 34.4912 152.117 33.0761C151.72 31.7575 151.508 30.2781 151.508 28.7344V19.3112C151.508 18.1856 152.276 17.2529 153.204 17.2529C154.131 17.2529 154.9 18.1856 154.9 19.3112V28.7344C154.9 32.3042 156.463 36.1314 160.862 36.1314H162.055C166.48 36.1314 168.044 32.3042 168.044 28.7344V19.3112C168.044 18.1856 168.812 17.2529 169.739 17.2529Z" fill="#0C0C13"/>
</svg>
