<svg width="48" height="46" viewBox="0 0 48 46" fill="none" xmlns="http://www.w3.org/2000/svg">
<path fill-rule="evenodd" clip-rule="evenodd" d="M23.8389 20.0083V20.4804L36.4026 39.8335H47.9999L35.7245 20.0083H23.8389Z" fill="#256A33"/>
<path fill-rule="evenodd" clip-rule="evenodd" d="M17.5615 30.646L11.5974 39.8332H7.24792e-05L11.5651 21.1553L17.5615 30.646Z" fill="#066BA3"/>
<path d="M0 0.8125H11.5973L24.161 20.0083V39.8334L0 0.8125Z" fill="#256A33"/>
<path fill-rule="evenodd" clip-rule="evenodd" d="M24.1611 20.0083L36.0806 0.8125L42.0403 10.5677L24.1611 39.8334V20.0083Z" fill="#256A33"/>
<path d="M37.0469 0.8125H47.9999V10.5677H42.8455L37.0469 0.8125Z" fill="#066BA3"/>
<path d="M4.62623 41.1281C4.80238 41.2274 4.87944 41.4722 4.80238 41.6839L3.57483 44.9193C3.37116 45.4619 2.91427 45.8126 2.41885 45.8126C1.91793 45.8126 1.46654 45.4619 1.25737 44.9193L0.029823 41.6839C-0.0472425 41.4722 0.029823 41.2274 0.205973 41.1281C0.382122 41.0355 0.5913 41.1281 0.668366 41.3399L1.89591 44.5687C1.98949 44.8135 2.19316 44.9723 2.41885 44.9723C2.63904 44.9723 2.84271 44.8135 2.93629 44.5687L4.16384 41.3399C4.24641 41.1281 4.45008 41.0355 4.62623 41.1281Z" fill="#0C0C13"/>
<path d="M9.05083 41.9914L10.2789 45.2174C10.356 45.429 10.2789 45.6802 10.1027 45.7727C10.0586 45.7992 10.0091 45.8124 9.95951 45.8124C9.82734 45.8124 9.70068 45.7198 9.6401 45.5678L8.41751 42.3351C8.32389 42.0905 8.11462 41.9385 7.89433 41.9385C7.66854 41.9385 7.46478 42.0905 7.37116 42.3351L6.14306 45.5678C6.06596 45.7793 5.85669 45.8719 5.68046 45.7727C5.50423 45.6802 5.42713 45.429 5.50974 45.2174L6.73233 41.9914C6.9416 41.4493 7.39318 41.0923 7.89433 41.0923C8.38998 41.0923 8.84707 41.4493 9.05083 41.9914ZM7.89433 43.5383C8.24128 43.5383 8.52215 43.8754 8.52215 44.2919C8.52215 44.7084 8.24128 45.0455 7.89433 45.0455C7.54738 45.0455 7.26652 44.7084 7.26652 44.2919C7.26652 43.8754 7.54738 43.5383 7.89433 43.5383Z" fill="#0C0C13"/>
<path d="M15.122 44.973C15.3083 44.973 15.4626 45.1581 15.4626 45.3894C15.4626 45.6274 15.3083 45.8126 15.122 45.8126H12.2542C12.0679 45.8126 11.9189 45.6274 11.9189 45.3894V41.5154C11.9189 41.284 12.0679 41.0923 12.2542 41.0923C12.4404 41.0923 12.5947 41.284 12.5947 41.5154V44.973H15.122Z" fill="#0C0C13"/>
<path d="M41.8503 41.0923C42.0454 41.0923 42.2016 41.284 42.2016 41.5154V45.3894C42.2016 45.5613 42.1179 45.7134 41.9897 45.7795C41.9451 45.7993 41.8949 45.8126 41.8503 45.8126C41.761 45.8126 41.6718 45.7729 41.6049 45.7002L38.7219 42.4872V45.3894C38.7219 45.6274 38.5657 45.8126 38.3706 45.8126C38.1754 45.8126 38.0137 45.6274 38.0137 45.3894V41.5154C38.0137 41.3501 38.0973 41.1981 38.2312 41.132C38.3594 41.0658 38.51 41.0923 38.6104 41.2113L41.4934 44.4176V41.5154C41.4934 41.284 41.6495 41.0923 41.8503 41.0923Z" fill="#0C0C13"/>
<path d="M36.0774 41.0923C36.255 41.0923 36.4021 41.284 36.4021 41.5154V45.3894C36.4021 45.6274 36.255 45.8126 36.0774 45.8126C35.8999 45.8126 35.7578 45.6274 35.7578 45.3894V41.5154C35.7578 41.284 35.8999 41.0923 36.0774 41.0923Z" fill="#0C0C13"/>
<path d="M33.6119 41.1258C33.741 41.1919 33.8251 41.344 33.8251 41.5159V45.3895C33.8251 45.6275 33.668 45.8126 33.4716 45.8126C33.2752 45.8126 33.1125 45.6275 33.1125 45.3895V42.5008L31.3338 44.5169C31.2047 44.669 30.969 44.669 30.84 44.5169L29.0613 42.5008V45.3895C29.0613 45.6275 28.8985 45.8126 28.7021 45.8126C28.5057 45.8126 28.3486 45.6275 28.3486 45.3895V41.5159C28.3486 41.344 28.4328 41.1919 28.5619 41.1258C28.6965 41.0597 28.848 41.0928 28.949 41.2118L31.0869 43.6312L33.2247 41.2118C33.3257 41.0928 33.4772 41.0597 33.6119 41.1258Z" fill="#0C0C13"/>
<path d="M26.3808 41.0923C26.576 41.0923 26.7377 41.284 26.7377 41.5154C26.7377 41.7468 26.576 41.9319 26.3808 41.9319H22.9011C22.7059 41.9319 22.5498 41.7468 22.5498 41.5154C22.5498 41.284 22.7059 41.0923 22.9011 41.0923H26.3808ZM26.3808 44.973C26.576 44.973 26.7377 45.1581 26.7377 45.3894C26.7377 45.6274 26.576 45.8126 26.3808 45.8126H22.9011C22.7059 45.8126 22.5498 45.6274 22.5498 45.3894C22.5498 45.1581 22.7059 44.973 22.9011 44.973H26.3808ZM26.3808 43.0359C26.576 43.0359 26.7377 43.221 26.7377 43.4524C26.7377 43.6838 26.576 43.8755 26.3808 43.8755H22.9011C22.7059 43.8755 22.5498 43.6838 22.5498 43.4524C22.5498 43.221 22.7059 43.0359 22.9011 43.0359H26.3808Z" fill="#0C0C13"/>
<path d="M47.6425 41.0923C47.8377 41.0923 47.9994 41.284 47.9994 41.5154C47.9994 41.7468 47.8377 41.9319 47.6425 41.9319H44.1628C43.9677 41.9319 43.8115 41.7468 43.8115 41.5154C43.8115 41.284 43.9677 41.0923 44.1628 41.0923H47.6425ZM47.6425 44.973C47.8377 44.973 47.9994 45.1581 47.9994 45.3894C47.9994 45.6274 47.8377 45.8126 47.6425 45.8126H44.1628C43.9677 45.8126 43.8115 45.6274 43.8115 45.3894C43.8115 45.1581 43.9677 44.973 44.1628 44.973H47.6425ZM47.6425 43.0359C47.8377 43.0359 47.9994 43.221 47.9994 43.4524C47.9994 43.6838 47.8377 43.8755 47.6425 43.8755H44.1628C43.9677 43.8755 43.8115 43.6838 43.8115 43.4524C43.8115 43.221 43.9677 43.0359 44.1628 43.0359H47.6425Z" fill="#0C0C13"/>
<path d="M20.5885 41.0923C20.7837 41.0923 20.9399 41.284 20.9399 41.5154V43.4524C20.9399 43.7697 20.9008 44.0739 20.8172 44.3449C20.7335 44.6358 20.6053 44.8936 20.438 45.1118C20.0811 45.5679 19.5736 45.8126 18.9714 45.8126H18.7204C18.1238 45.8126 17.6163 45.5679 17.2594 45.1118C17.0921 44.8936 16.9639 44.6358 16.8802 44.3449C16.7966 44.0739 16.752 43.7697 16.752 43.4524V41.5154C16.752 41.284 16.9137 41.0923 17.1088 41.0923C17.304 41.0923 17.4657 41.284 17.4657 41.5154V43.4524C17.4657 44.1862 17.7947 44.973 18.7204 44.973H18.9714C19.9026 44.973 20.2317 44.1862 20.2317 43.4524V41.5154C20.2317 41.284 20.3934 41.0923 20.5885 41.0923Z" fill="#0C0C13"/>
</svg>
