<svg width="172" height="165" viewBox="0 0 172 165" fill="none" xmlns="http://www.w3.org/2000/svg">
<path d="M107.743 126.933C112.147 122.597 109.77 112.639 102.577 101.136C105.191 100.728 107.635 100.104 109.484 99.1482C116.136 95.7145 120.627 89.4567 124.027 82.9834C127.682 76.0394 130.135 68.4063 134.904 62.0833C135.709 61.0143 136.514 60.0559 137.317 59.1543C147.607 60.3877 155.821 62.5993 155.821 62.5993C155.821 62.5993 157.936 57.2318 158.96 54.6232C155.101 53.231 151.004 52.094 146.807 51.2575C149.336 49.82 150.987 49.372 150.987 49.372C150.987 49.372 149.005 44.0101 148.012 41.3306C143.243 43.3466 139.373 46.321 136.132 49.8823C124.019 49.2047 111.821 51.6176 102.197 59.0805C94.961 64.6947 90.0726 72.478 85.4735 80.2642C81.1778 76.0592 76.7914 72.3334 72.4844 69.1294C73.352 67.7031 74.282 66.4215 75.2829 65.4319C81.3309 59.4775 89.3099 55.6695 94.5441 48.8559C105.546 34.5482 97.4987 12.1199 88.4479 0.505859C86.826 2.06819 84.1437 4.34506 82.1249 6.14273C91.7456 15.9959 98.4741 33.2468 90.9346 46.1367C86.7211 53.3416 78.935 57.8613 73.4909 64.0511C72.5496 65.1257 71.7074 66.4867 70.9447 67.9895C56.7079 57.7791 43.6422 53.6705 38.4646 58.7686C37.9401 59.2847 37.546 59.9 37.2114 60.5663L37.1915 60.5465L37.0526 60.9519C36.8598 61.3914 36.684 61.8479 36.5649 62.347L0.9375 164.962L104.891 128.617L104.862 128.589C105.979 128.229 106.963 127.698 107.743 126.933ZM21.6164 151.726L12.9399 147.683L18.7952 130.812L45.6497 143.322L21.6164 151.726ZM69.6801 134.92L24.656 113.941L30.5112 97.0727L64.1566 113.961C44.0732 100.889 36.3664 80.199 36.3664 80.199L38.3682 74.4345C41.9267 83.437 49.7554 94.6484 60.5131 105.23C71.3615 115.909 82.8593 123.644 92.0489 127.1L69.6801 134.92ZM86.9735 81.784C91.6747 75.0441 96.5204 68.2419 103.257 63.4018C109.671 58.7913 120.083 57.9492 129.953 58.5021C126.619 64.3261 124.155 70.7881 121.943 76.9949C119.269 84.5088 115.685 92.3006 108.852 96.9082C107.009 98.1502 104.426 99.0575 101.667 99.7295C97.8758 93.9197 92.9024 87.7781 86.9735 81.784Z" fill="#2F0A28"/>
<path d="M60.5763 54.379C63.4174 54.379 54.8997 45.8726 56.3231 38.4125C61.7785 37.9929 74.2488 40.4512 66.9901 30.4818C75.2015 31.9279 79.4547 25.7976 71.7026 19.9878C74.2828 20.1693 78.2922 15.3037 75.4142 14.6884C66.1933 12.7347 62.5838 17.7223 68.4361 24.9158C62.2832 23.7703 57.2673 26.6313 61.8891 33.0564C44.1222 30.8419 54.2305 54.379 60.5763 54.379Z" fill="#2F0A28"/>
<path d="M121.571 46.8197C124.233 45.6175 119.716 37.6754 118.248 35.6452C129.484 34.443 129.059 31.0943 122.013 23.9207C141.169 24.5643 122.606 13.6762 125.209 9.36631C127.463 5.62919 134.378 9.54778 133.738 7.46656C131.577 0.505533 111.082 5.21238 124.052 18.2101C112.733 18.4312 111.647 22.1315 120.082 29.8014C105.389 29.963 117.377 48.7081 121.571 46.8197Z" fill="#2F0A28"/>
<path d="M170.205 74.8656C165.719 76.1217 165.027 75.651 165.626 80.1169C155.265 75.3476 144.303 68.7155 150.955 86.2868C139.188 79.2804 139.775 85.4163 137.575 95.5133C134.711 93.2818 130.642 87.4011 130.642 87.4011L126.332 91.0617C126.332 91.0617 134.229 102.199 138.127 101.567C141.556 101.014 143.421 94.5351 143.611 88.8245C154.528 93.4321 159.753 94.0474 154.76 80.5734C163.488 85.4759 174.189 89.7999 170.205 74.8656Z" fill="#2F0A28"/>
<path d="M12.418 24.4297L20.4377 32.4495L12.418 40.4692L4.39819 32.4495L12.418 24.4297Z" fill="#2F0A28"/>
<path d="M31.627 57.7754L23.6018 65.7949L15.5822 57.7697L23.6074 49.7502L31.627 57.7754Z" fill="#2F0A28"/>
<path d="M44.0938 11.8467L52.1135 19.8665L44.0917 27.8882L36.072 19.8685L44.0938 11.8467Z" fill="#2F0A28"/>
<path d="M131.4 123.802L123.375 115.782L131.393 107.759L139.418 115.779L131.4 123.802Z" fill="#2F0A28"/>
<path d="M113.52 151.312L105.5 143.293L113.52 135.273L121.539 143.293L113.52 151.312Z" fill="#2F0A28"/>
<path d="M148.701 157.645L140.676 149.625L148.693 141.602L156.719 149.621L148.701 157.645Z" fill="#2F0A28"/>
<path d="M156.721 121.113L148.701 113.094L156.721 105.074L164.74 113.094L156.721 121.113Z" fill="#2F0A28"/>
<path d="M143.334 20.3525L151.354 28.3723L143.332 36.3941L135.312 28.3743L143.334 20.3525Z" fill="#2F0A28"/>
</svg>
