<svg width="25" height="24" viewBox="0 0 25 24" fill="none" xmlns="http://www.w3.org/2000/svg">
<path d="M16.2578 14.2559H15.4678L15.1878 13.9859C16.1678 12.8459 16.7578 11.3659 16.7578 9.75586C16.7578 6.16586 13.8478 3.25586 10.2578 3.25586C6.66781 3.25586 3.75781 6.16586 3.75781 9.75586C3.75781 13.3459 6.66781 16.2559 10.2578 16.2559C11.8678 16.2559 13.3478 15.6659 14.4878 14.6859L14.7578 14.9659V15.7559L19.7578 20.7459L21.2478 19.2559L16.2578 14.2559ZM10.2578 14.2559C7.76781 14.2559 5.75781 12.2459 5.75781 9.75586C5.75781 7.26586 7.76781 5.25586 10.2578 5.25586C12.7478 5.25586 14.7578 7.26586 14.7578 9.75586C14.7578 12.2459 12.7478 14.2559 10.2578 14.2559Z" fill="#666687"/>
</svg>
