<svg width="36" height="36" viewBox="0 0 36 36" fill="none" xmlns="http://www.w3.org/2000/svg">
<path d="M30 19.5H6C5.175 19.5 4.5 20.175 4.5 21V30C4.5 30.825 5.175 31.5 6 31.5H30C30.825 31.5 31.5 30.825 31.5 30V21C31.5 20.175 30.825 19.5 30 19.5ZM10.5 28.5C8.85 28.5 7.5 27.15 7.5 25.5C7.5 23.85 8.85 22.5 10.5 22.5C12.15 22.5 13.5 23.85 13.5 25.5C13.5 27.15 12.15 28.5 10.5 28.5ZM30 4.5H6C5.175 4.5 4.5 5.175 4.5 6V15C4.5 15.825 5.175 16.5 6 16.5H30C30.825 16.5 31.5 15.825 31.5 15V6C31.5 5.175 30.825 4.5 30 4.5ZM10.5 13.5C8.85 13.5 7.5 12.15 7.5 10.5C7.5 8.85 8.85 7.5 10.5 7.5C12.15 7.5 13.5 8.85 13.5 10.5C13.5 12.15 12.15 13.5 10.5 13.5Z" fill="white"/>
</svg>
