<svg width="64" height="60" viewBox="0 0 64 60" fill="none" xmlns="http://www.w3.org/2000/svg">
<path fill-rule="evenodd" clip-rule="evenodd" d="M31.7891 25.5938V26.2232L48.5407 52.0274H64.0037L47.6365 25.5938H31.7891Z" fill="#256A33"/>
<path fill-rule="evenodd" clip-rule="evenodd" d="M23.4141 39.7773L15.4618 52.0269H-0.00120163L15.4188 27.123L23.4141 39.7773Z" fill="#066BA3"/>
<path d="M0 0H15.463L32.2147 25.5943V52.0278L0 0Z" fill="#256A33"/>
<path fill-rule="evenodd" clip-rule="evenodd" d="M32.2109 25.5943L48.1035 0L56.0498 13.007L32.2109 52.0278V25.5943Z" fill="#256A33"/>
<path d="M49.3984 0H64.0024V13.007H57.13L49.3984 0Z" fill="#066BA3"/>
<path d="M6.1683 53.7548C6.40317 53.8872 6.50592 54.2136 6.40317 54.4959L4.76645 58.8098C4.49488 59.5332 3.8857 60.0007 3.22514 60.0007C2.55724 60.0007 1.95539 59.5332 1.67649 58.8098L0.039764 54.4959C-0.06299 54.2136 0.039764 53.8872 0.27463 53.7548C0.509496 53.6313 0.7884 53.7548 0.891154 54.0371L2.52788 58.3422C2.65265 58.6686 2.92421 58.8803 3.22514 58.8803C3.51872 58.8803 3.79028 58.6686 3.91506 58.3422L5.55178 54.0371C5.66187 53.7548 5.93344 53.6313 6.1683 53.7548Z" fill="#0C0C13"/>
<path d="M12.0704 54.9058L13.7078 59.2072C13.8106 59.4893 13.7078 59.8242 13.4729 59.9476C13.4141 59.9829 13.348 60.0005 13.282 60.0005C13.1057 60.0005 12.9368 59.8771 12.8561 59.6744L11.226 55.3641C11.1011 55.038 10.8221 54.8353 10.5284 54.8353C10.2273 54.8353 9.95564 55.038 9.83081 55.3641L8.19336 59.6744C8.09056 59.9564 7.81153 60.0798 7.57656 59.9476C7.34158 59.8242 7.23878 59.4893 7.34893 59.2072L8.97904 54.9058C9.25807 54.183 9.86018 53.707 10.5284 53.707C11.1892 53.707 11.7987 54.183 12.0704 54.9058ZM10.5284 56.9684C10.991 56.9684 11.3655 57.4179 11.3655 57.9732C11.3655 58.5285 10.991 58.978 10.5284 58.978C10.0658 58.978 9.6913 58.5285 9.6913 57.9732C9.6913 57.4179 10.0658 56.9684 10.5284 56.9684Z" fill="#0C0C13"/>
<path d="M20.1614 58.8813C20.4097 58.8813 20.6154 59.1281 20.6154 59.4366C20.6154 59.7539 20.4097 60.0007 20.1614 60.0007H16.3376C16.0893 60.0007 15.8906 59.7539 15.8906 59.4366V54.2712C15.8906 53.9627 16.0893 53.707 16.3376 53.707C16.5859 53.707 16.7916 53.9627 16.7916 54.2712V58.8813H20.1614Z" fill="#0C0C13"/>
<path d="M55.803 53.707C56.0632 53.707 56.2714 53.9627 56.2714 54.2712V59.4366C56.2714 59.6658 56.1598 59.8685 55.9888 59.9566C55.9294 59.9831 55.8624 60.0007 55.803 60.0007C55.684 60.0007 55.565 59.9478 55.4758 59.8509L51.6318 55.5669V59.4366C51.6318 59.7539 51.4236 60.0007 51.1634 60.0007C50.9031 60.0007 50.6875 59.7539 50.6875 59.4366V54.2712C50.6875 54.0508 50.799 53.8481 50.9775 53.7599C51.1485 53.6718 51.3492 53.707 51.4831 53.8657L55.3271 58.1408V54.2712C55.3271 53.9627 55.5353 53.707 55.803 53.707Z" fill="#0C0C13"/>
<path d="M48.1058 53.707C48.3426 53.707 48.5387 53.9627 48.5387 54.2712V59.4366C48.5387 59.7539 48.3426 60.0007 48.1058 60.0007C47.8691 60.0007 47.6797 59.7539 47.6797 59.4366V54.2712C47.6797 53.9627 47.8691 53.707 48.1058 53.707Z" fill="#0C0C13"/>
<path d="M44.8146 53.7518C44.9866 53.8399 45.0989 54.0426 45.0989 54.2718V59.4366C45.0989 59.7539 44.8894 60.0007 44.6275 60.0007C44.3657 60.0007 44.1487 59.7539 44.1487 59.4366V55.585L41.7771 58.2732C41.605 58.4759 41.2908 58.4759 41.1187 58.2732L38.747 55.585V59.4366C38.747 59.7539 38.5301 60.0007 38.2682 60.0007C38.0064 60.0007 37.7969 59.7539 37.7969 59.4366V54.2718C37.7969 54.0426 37.9091 53.8399 38.0812 53.7518C38.2607 53.6636 38.4627 53.7077 38.5974 53.8664L41.4479 57.0922L44.2983 53.8664C44.433 53.7077 44.635 53.6636 44.8146 53.7518Z" fill="#0C0C13"/>
<path d="M35.1783 53.707C35.4386 53.707 35.6542 53.9627 35.6542 54.2712C35.6542 54.5797 35.4386 54.8265 35.1783 54.8265H30.5387C30.2785 54.8265 30.0703 54.5797 30.0703 54.2712C30.0703 53.9627 30.2785 53.707 30.5387 53.707H35.1783ZM35.1783 58.8813C35.4386 58.8813 35.6542 59.1281 35.6542 59.4366C35.6542 59.7539 35.4386 60.0007 35.1783 60.0007H30.5387C30.2785 60.0007 30.0703 59.7539 30.0703 59.4366C30.0703 59.1281 30.2785 58.8813 30.5387 58.8813H35.1783ZM35.1783 56.2986C35.4386 56.2986 35.6542 56.5454 35.6542 56.8539C35.6542 57.1624 35.4386 57.418 35.1783 57.418H30.5387C30.2785 57.418 30.0703 57.1624 30.0703 56.8539C30.0703 56.5454 30.2785 56.2986 30.5387 56.2986H35.1783Z" fill="#0C0C13"/>
<path d="M63.5221 53.707C63.7823 53.707 63.9979 53.9627 63.9979 54.2712C63.9979 54.5797 63.7823 54.8265 63.5221 54.8265H58.8825C58.6222 54.8265 58.4141 54.5797 58.4141 54.2712C58.4141 53.9627 58.6222 53.707 58.8825 53.707H63.5221ZM63.5221 58.8813C63.7823 58.8813 63.9979 59.1281 63.9979 59.4366C63.9979 59.7539 63.7823 60.0007 63.5221 60.0007H58.8825C58.6222 60.0007 58.4141 59.7539 58.4141 59.4366C58.4141 59.1281 58.6222 58.8813 58.8825 58.8813H63.5221ZM63.5221 56.2986C63.7823 56.2986 63.9979 56.5454 63.9979 56.8539C63.9979 57.1624 63.7823 57.418 63.5221 57.418H58.8825C58.6222 57.418 58.4141 57.1624 58.4141 56.8539C58.4141 56.5454 58.6222 56.2986 58.8825 56.2986H63.5221Z" fill="#0C0C13"/>
<path d="M27.4514 53.707C27.7116 53.707 27.9198 53.9627 27.9198 54.2712V56.8539C27.9198 57.277 27.8678 57.6825 27.7562 58.0439C27.6447 58.4317 27.4737 58.7755 27.2506 59.0664C26.7748 59.6746 26.0982 60.0007 25.2952 60.0007H24.9606C24.165 60.0007 23.4884 59.6746 23.0125 59.0664C22.7895 58.7755 22.6185 58.4317 22.5069 58.0439C22.3954 57.6825 22.3359 57.277 22.3359 56.8539V54.2712C22.3359 53.9627 22.5516 53.707 22.8118 53.707C23.072 53.707 23.2877 53.9627 23.2877 54.2712V56.8539C23.2877 57.8323 23.7263 58.8813 24.9606 58.8813H25.2952C26.5369 58.8813 26.9755 57.8323 26.9755 56.8539V54.2712C26.9755 53.9627 27.1912 53.707 27.4514 53.707Z" fill="#0C0C13"/>
</svg>
