<svg width="124" height="124" viewBox="0 0 124 124" fill="none" xmlns="http://www.w3.org/2000/svg">
<path d="M98.166 46.4998L104.624 32.2915L118.833 25.8332L104.624 19.3748L98.166 5.1665L91.7077 19.3748L77.4994 25.8332L91.7077 32.2915L98.166 46.4998Z" fill="#12A55C"/>
<path d="M98.166 77.4998L91.7077 91.7082L77.4994 98.1665L91.7077 104.625L98.166 118.833L104.624 104.625L118.833 98.1665L104.624 91.7082L98.166 77.4998Z" fill="#12A55C"/>
<path d="M59.416 49.0832L46.4994 20.6665L33.5827 49.0832L5.16602 61.9998L33.5827 74.9165L46.4994 103.333L59.416 74.9165L87.8327 61.9998L59.416 49.0832ZM51.6143 67.1148L46.4994 78.3782L41.3844 67.1148L30.121 61.9998L41.3844 56.8848L46.4994 45.6215L51.6143 56.8848L62.8777 61.9998L51.6143 67.1148Z" fill="#12A55C"/>
</svg>
