<svg width="108" height="68" viewBox="0 0 108 68" fill="none" xmlns="http://www.w3.org/2000/svg">
<rect width="108" height="68" fill="#0D7742"/>
<path d="M66 35.5H42C41.175 35.5 40.5 36.175 40.5 37V46C40.5 46.825 41.175 47.5 42 47.5H66C66.825 47.5 67.5 46.825 67.5 46V37C67.5 36.175 66.825 35.5 66 35.5ZM46.5 44.5C44.85 44.5 43.5 43.15 43.5 41.5C43.5 39.85 44.85 38.5 46.5 38.5C48.15 38.5 49.5 39.85 49.5 41.5C49.5 43.15 48.15 44.5 46.5 44.5ZM66 20.5H42C41.175 20.5 40.5 21.175 40.5 22V31C40.5 31.825 41.175 32.5 42 32.5H66C66.825 32.5 67.5 31.825 67.5 31V22C67.5 21.175 66.825 20.5 66 20.5ZM46.5 29.5C44.85 29.5 43.5 28.15 43.5 26.5C43.5 24.85 44.85 23.5 46.5 23.5C48.15 23.5 49.5 24.85 49.5 26.5C49.5 28.15 48.15 29.5 46.5 29.5Z" fill="white"/>
</svg>
